<svg width="381" height="257" viewBox="0 0 381 257" fill="none" xmlns="http://www.w3.org/2000/svg">
<path fill-rule="evenodd" clip-rule="evenodd" d="M172.2 216.532C150.012 222.771 111.763 225.34 63.015 225.783C17.7763 226.512 -0.277483 231.463 0.52557 239.661C5.96848 252.309 80.8606 257.667 209.23 255.962C315.203 254.665 364.487 246.274 378.555 232.865C399.881 209.815 240.252 197.703 172.2 216.532Z" fill="url(#paint0_linear_40_660)"/>
<path opacity="0.1" d="M85.6972 42.4775H264.757V228.326H85.6972V42.4775Z" fill="#7BD53D"/>
<path d="M350.161 231.133V214.485H342.982L347.289 231.133H350.161Z" fill="#292678"/>
<path d="M322.532 231.133V214.485H330.067L325.544 231.133H322.532Z" fill="#292678"/>
<path d="M350.913 147.875C350.73 133.243 351.372 120.805 352.064 111.995C352.413 107.54 352.776 104.011 353.051 101.596C353.189 100.388 353.305 99.459 353.386 98.8309C353.416 98.6015 353.441 98.4123 353.461 98.2644L339.873 92.8394H328.86L314.281 100.117L316.064 147.875H350.913Z" fill="white" stroke="black"/>
<path d="M335.148 111.348L335.149 111.35C335.435 112.523 335.773 113.778 336.163 115.076L336.163 115.077C338.069 121.452 341.098 128.891 344.397 133.958C346.054 136.502 347.739 138.385 349.335 139.269C350.124 139.706 350.865 139.885 351.559 139.806C352.25 139.728 352.952 139.389 353.656 138.686L353.657 138.685C357.282 135.068 359.136 129.019 360.07 122.968C360.999 116.94 361 111.022 361 107.753C361 104.691 359.247 102.364 357.426 100.774C356.52 99.9831 355.611 99.3877 354.929 98.9903C354.719 98.8683 354.531 98.7652 354.372 98.6811C353.739 102.059 353.24 108.002 352.893 113.269C352.71 116.067 352.57 118.662 352.476 120.557C352.428 121.504 352.393 122.277 352.369 122.812C352.357 123.08 352.348 123.288 352.342 123.43L352.336 123.591L352.334 123.632L352.334 123.642L352.334 123.644L352.333 123.645C352.333 123.645 352.333 123.645 351.834 123.625L352.333 123.645L352.264 125.377L351.4 123.874L342.548 108.468L342.548 108.467L341.142 106.016L334.458 108.101C334.629 109.087 334.86 110.186 335.148 111.348Z" fill="white" stroke="black"/>
<path d="M338.526 129.906L338.526 129.906L314.753 127.757L314.314 127.717L314.298 127.278L313.318 100.95C313.223 101.048 313.121 101.156 313.012 101.275C312.337 102.013 311.405 103.157 310.399 104.764C308.386 107.977 306.07 113.05 304.908 120.453C303.744 127.862 304.931 132.213 307.399 134.728C309.883 137.259 313.799 138.074 318.447 138.074H338.571H338.582H338.594H338.606H338.617H338.629H338.64H338.652H338.664H338.675H338.687H338.698H338.71H338.721H338.732H338.744H338.755H338.767H338.778H338.789H338.801H338.812H338.823H338.835H338.846H338.857H338.869H338.88H338.891H338.902H338.913H338.924H338.936H338.947H338.958H338.969H338.98H338.991H339.002H339.013H339.024H339.035H339.046H339.057H339.068H339.079H339.09H339.101H339.112H339.122H339.133H339.144H339.155H339.166H339.177H339.187H339.198H339.209H339.219H339.23H339.241H339.251H339.262H339.273H339.283H339.294H339.304H339.315H339.325H339.336H339.346H339.357H339.367H339.378H339.388H339.399H339.409H339.419H339.43H339.44H339.45H339.461H339.471H339.481H339.491H339.501H339.512H339.522H339.532H339.542H339.552H339.562H339.572H339.583H339.593H339.603H339.613H339.623H339.633H339.643H339.652H339.662H339.672H339.682H339.692H339.702H339.712H339.721H339.731H339.741H339.751H339.761H339.77H339.78H339.79H339.799H339.809H339.818H339.828H339.838H339.847H339.857H339.866H339.876H339.885H339.895H339.904H339.914H339.923H339.932H339.942H339.951H339.96H339.97H339.979H339.988H339.997H340.007H340.016H340.025H340.034H340.043H340.053H340.062H340.071H340.08H340.089H340.098H340.107H340.116H340.125H340.134H340.143H340.152H340.16H340.169H340.178H340.187H340.196H340.205H340.213H340.222H340.231H340.24H340.248H340.257H340.266H340.274H340.283H340.291H340.3H340.308H340.317H340.325H340.334H340.342H340.351H340.359H340.368H340.376H340.384H340.393H340.401H340.409H340.418H340.426H340.434H340.442H340.451H340.459H340.467H340.475H340.483H340.491H340.499H340.507H340.515H340.523H340.531H340.539H340.547H340.555H340.563H340.571H340.579H340.586H340.594H340.602H340.61H340.618H340.625H340.633H340.641H340.648H340.656H340.664H340.671H340.679H340.686H340.694H340.701H340.709H340.716H340.724H340.731H340.739H340.746H340.753H340.761H340.768H340.775H340.782H340.79H340.797H340.804H340.811H340.818H340.826H340.833H340.84H340.847H340.854H340.861H340.868H340.875H340.882H340.889H340.896H340.902H340.909H340.916H340.923H340.93H340.937H340.943H340.95H340.957H340.963H340.97H340.977H340.983H340.99H340.996H341.003H341.009H341.016H341.022H341.029H341.035H341.042H341.048H341.054H341.061H341.067H341.073H341.08H341.086H341.092H341.098H341.104H341.111H341.117H341.123H341.129H341.135H341.141H341.147H341.153H341.159H341.165H341.171H341.177H341.183H341.188H341.194H341.2H341.206H341.212H341.217H341.223H341.229H341.234H341.24H341.245H341.251H341.257H341.262H341.268H341.273H341.279H341.284H341.289H341.295H341.3H341.306H341.311H341.316H341.321H341.327H341.332H341.337H341.342H341.347H341.349V130.161L338.526 129.906Z" fill="white" stroke="black"/>
<path d="M341.849 131.565C341.849 131.565 350.272 131.099 350.738 138.566H341.849V131.565Z" fill="#F9A28B"/>
<path d="M273.528 220.291L285.651 222.625L300.669 170.326C300.669 170.326 319.786 171.729 335.433 174.063C351.072 176.397 350.746 155.85 350.746 155.85V148.383H325.781C325.781 148.383 301.224 147.489 289.759 149.971C286.85 150.598 284.785 151.448 284.179 152.585C283.72 153.442 283.157 155.613 282.528 158.679C279.02 175.695 273.528 220.291 273.528 220.291Z" fill="#292678"/>
<path d="M301.135 163.79L312.363 207.683L302.541 212.816L287.095 185.267L301.135 163.79Z" fill="#292678"/>
<path d="M176.334 217.396L175.571 223.932H183.535L184.298 217.861L176.334 217.396Z" fill="#F9A28B"/>
<path d="M202.542 217.861V223.932H210.032L210.498 217.861H202.542Z" fill="#F9A28B"/>
<path d="M222.2 98.7793L211.905 220.194H201.143V118.396V98.7793H222.2Z" fill="#2F70FE"/>
<path d="M213.777 98.7793L204.888 113.728L185.23 220.194H172.596L187.569 98.7793H213.777Z" fill="#2F70FE"/>
<path d="M186.939 58.6631C187.748 67.4746 188.507 79.9143 188.327 94.5497H221.779L224.48 46.7885L209.907 39.5137H198.893L185.313 44.9355C185.336 45.0824 185.365 45.2693 185.399 45.4952C185.494 46.1236 185.628 47.0534 185.788 48.2614C186.108 50.6774 186.53 54.2064 186.939 58.6631Z" fill="white" stroke="black"/>
<path d="M187.103 95.0493H223.132V99.2518H187.103V95.0493Z" fill="#6DED02"/>
<path d="M265.823 71.3563L267.659 70.9574C267.659 70.9574 270.205 68.269 271.567 67.1833C272.936 66.0976 272.988 67.8406 271.123 69.9899C271.123 69.9899 276.096 66.7032 277.754 69.6206C279.582 72.8408 276.703 75.5809 270.234 75.5957L268.295 76.2383L265.823 71.3563Z" fill="#F9A28B"/>
<path d="M238.947 95.0246L238.947 95.0245C239.201 94.9739 239.683 94.779 240.391 94.4224C241.082 94.0746 241.942 93.5972 242.931 93.019C244.909 91.8632 247.379 90.3172 250 88.63C255.239 85.2564 261.058 81.33 264.683 78.8602L264.684 78.8597C265.771 78.1218 266.66 77.513 267.277 77.0887C267.529 76.9156 267.736 76.7731 267.893 76.6653L264.985 70.4557L261.386 71.7165L261.385 71.7169L260.195 72.1375L260.194 72.1378L240.136 79.1765L239.643 79.3495L239.492 78.8493L239.97 78.7047C239.492 78.8493 239.492 78.8493 239.492 78.8491L239.491 78.8481L239.49 78.8443L239.485 78.8286L239.466 78.7661C239.45 78.7108 239.424 78.6285 239.391 78.5209C239.325 78.3056 239.227 77.9892 239.1 77.5853C238.845 76.7775 238.475 75.6198 238.012 74.2216C237.085 71.4247 235.787 67.668 234.299 63.8256C232.811 59.9804 231.138 56.0619 229.463 52.9357C228.625 51.372 227.794 50.0188 226.991 48.9757C226.411 48.2219 225.866 47.6555 225.365 47.2845L219.927 78.5595C219.933 78.5658 219.939 78.5724 219.944 78.5791C220.054 78.7081 220.217 78.8974 220.425 79.1382C220.842 79.6199 221.444 80.3074 222.18 81.1296C223.653 82.7747 225.664 84.9565 227.819 87.1076C229.977 89.2614 232.267 91.3721 234.3 92.8826C235.317 93.6385 236.254 94.2326 237.067 94.6078C237.896 94.9904 238.521 95.1099 238.947 95.0246Z" fill="white" stroke="black"/>
<path d="M261.227 71.2378L264.965 79.2662C267.141 77.789 268.525 76.8289 268.525 76.8289L265.246 69.8271L261.227 71.2378Z" fill="#228652"/>
<path d="M144.834 69.0223L142.998 68.6234C142.998 68.6234 140.452 65.935 139.09 64.8493C137.721 63.7636 137.669 65.5066 139.534 67.6559C139.534 67.6559 134.561 64.3692 132.903 67.2866C131.075 70.5068 133.954 73.247 140.423 73.2617L142.362 73.9043L144.834 69.0223Z" fill="#F9A28B"/>
<path d="M185.292 44.9511C184.791 45.322 184.246 45.8884 183.666 46.6423C182.863 47.6853 182.032 49.0385 181.194 50.6022C179.519 53.7284 177.846 57.6469 176.358 61.4921C174.87 65.3346 173.572 69.0912 172.645 71.8881C172.182 73.2863 171.812 74.444 171.557 75.2518C171.43 75.6558 171.332 75.9722 171.266 76.1874C171.233 76.295 171.207 76.3773 171.191 76.4326L171.172 76.4951L171.167 76.5108L171.166 76.5147L171.165 76.5156C171.165 76.5158 171.165 76.5159 170.687 76.3712L171.165 76.5159L171.014 77.0161L170.521 76.843L150.464 69.8044L150.463 69.804L149.272 69.3834L149.271 69.383L145.672 68.1222L142.765 74.3318C142.921 74.4397 143.128 74.5821 143.38 74.7553C143.997 75.1795 144.886 75.7883 145.973 76.5263L145.974 76.5267C149.599 78.9965 155.418 82.9229 160.658 86.2965C163.278 87.9837 165.749 89.5298 167.726 90.6856C168.715 91.2637 169.575 91.7411 170.266 92.089C170.974 92.4455 171.456 92.6404 171.71 92.691L171.71 92.6911C172.136 92.7765 172.761 92.6569 173.59 92.2743C174.403 91.8991 175.34 91.305 176.357 90.5491C178.39 89.0387 180.68 86.928 182.838 84.7741C184.993 82.6231 187.004 80.4412 188.477 78.7962C189.214 77.9739 189.815 77.2864 190.232 76.8048C190.44 76.5639 190.603 76.3746 190.713 76.2456C190.719 76.2389 190.724 76.2324 190.73 76.226L185.292 44.9511Z" fill="white" stroke="black"/>
<path d="M149.43 68.9039L145.692 76.9322C143.516 75.4551 142.132 74.4949 142.132 74.4949L145.411 67.4932L149.43 68.9039Z" fill="#228652"/>
<path d="M203.119 24.6411L200.803 38.8957L206.42 43.113L209.714 40.1365L209.958 27.7431L203.119 24.6411Z" fill="#F9A28B"/>
<path d="M199.826 18.3264C199.826 18.3264 198.36 37.0421 213.377 35.3064C228.395 33.5707 216.797 11.3838 216.797 11.3838L202.024 13.9836L199.826 18.3264Z" fill="#F9A28B"/>
<path d="M201.78 21.1772C201.78 21.1772 197.872 15.9702 194.334 18.6956C190.796 21.4209 193.357 29.2277 198.116 28.3636C202.875 27.4994 203.978 26.0075 203.978 26.0075L201.78 21.1772Z" fill="#F9A28B"/>
<path d="M202.757 25.8819L204.711 17.2035C204.711 17.2035 221.556 18.3188 225.826 14.1015C230.097 9.8842 231.562 3.31822 229.002 2.57226C226.441 1.82629 219.239 8.76895 219.239 8.76895C219.239 8.76895 220.09 -1.26836 216.797 1.08771C213.503 3.44378 213.259 7.53552 213.259 7.53552C213.259 7.53552 200.44 8.15593 199.589 10.6376C198.738 13.1192 199.47 13.7396 199.47 13.7396C199.47 13.7396 196.91 12.7499 196.539 13.9907C196.162 15.2241 202.757 25.8819 202.757 25.8819Z" fill="black"/>
<path d="M209.877 35.055L203.593 31.3252L209.573 39.5308L209.877 35.055Z" fill="#F9A28B"/>
<path d="M221.097 27.2851C221.097 27.2851 217.3 22.8537 210.868 25.2984C204.429 27.7431 203.364 21.7827 203.364 21.7827L202.209 26.1403C202.209 26.1403 201.217 29.427 202.868 32.4109C204.518 35.3947 211.779 38.8291 211.779 38.8291C211.779 38.8291 223.073 37.4554 221.097 27.2851Z" fill="black"/>
<path d="M310.69 208.577L312.007 212.159L306.027 215.024L304.414 211.797L310.69 208.577Z" fill="#F9A28B"/>
<path d="M314.716 218.186L312.007 212.159L306.027 215.025L298.367 227.019L314.716 218.186Z" fill="#292678"/>
<path d="M306.923 218.363L302.734 216.989" stroke="#7BD53D" stroke-width="4" stroke-miterlimit="10"/>
<path d="M304.591 220.098L301.401 219.064" stroke="#7BD53D" stroke-width="4" stroke-miterlimit="10"/>
<path d="M283.66 222.122L282.461 225.941L275.882 224.515L276.481 220.689L283.66 222.122Z" fill="#F9A28B"/>
<path d="M282.461 225.941L280.826 232.271L264.321 227.891L275.882 224.516L282.461 225.941Z" fill="#292678"/>
<path d="M273.654 223.836L273.972 227.019" stroke="#7BD53D" stroke-width="4" stroke-miterlimit="10"/>
<path d="M271.337 224.634L271.5 227.256" stroke="#7BD53D" stroke-width="4" stroke-miterlimit="10"/>
<path d="M202.542 222.499L201.898 229.914L220.068 230.66L209.669 223.134L202.542 222.499Z" fill="#292678"/>
<path d="M212.156 223.142L210.691 226.495" stroke="#7BD53D" stroke-width="4" stroke-miterlimit="10"/>
<path d="M214.199 224.774L213.089 227.573" stroke="#7BD53D" stroke-width="4" stroke-miterlimit="10"/>
<path d="M183.247 222.078L184.276 230.734L165.92 230.52L176.06 222.396L183.247 222.078Z" fill="#292678"/>
<path d="M173.544 222.263L175.202 226.236" stroke="#7BD53D" stroke-width="4" stroke-miterlimit="10"/>
<path d="M171.56 224.035L172.826 227.351" stroke="#7BD53D" stroke-width="4" stroke-miterlimit="10"/>
<path d="M301.719 169.728L293.104 195.984L296.938 202.196L301.719 169.728Z" fill="#1A1A56"/>
<path d="M210.217 113.152L203.045 118.167L200.891 134.098L201.609 151.824L204.474 119.955L210.217 113.152Z" fill="#1A1A56"/>
<path d="M317.085 215.564H356.682C357.836 215.564 358.776 214.633 358.776 213.474V177.963C358.776 174.994 356.364 172.586 353.388 172.586H320.386C317.41 172.586 314.998 174.994 314.998 177.963V213.474C314.998 214.626 315.93 215.564 317.085 215.564Z" fill="#7BD53D"/>
<path d="M212.489 40.2247L206.627 46.1924L197.775 39.5083" stroke="#228652" stroke-width="4" stroke-miterlimit="10"/>
<path d="M339.785 66.9464C339.785 66.9464 342.175 66.1487 343.374 68.8593C344.573 71.5625 342.101 77.9291 342.101 77.9291L339.074 74.6646L339.474 67.0277L339.785 66.9464Z" fill="black"/>
<path d="M333.063 97.2671L338.249 93.4692L336.03 80.1539L329.907 82.8608L330.148 94.7014L333.063 97.2671Z" fill="white" stroke="black"/>
<mask id="path-49-inside-1_40_660" fill="white">
<path fill-rule="evenodd" clip-rule="evenodd" d="M339.835 74.0003C339.825 73.4439 339.799 73.1213 339.799 73.1213L337.542 68.7785L322.391 66.1787C322.391 66.1787 310.498 88.3656 325.9 90.1013C333.503 90.9581 336.987 86.8311 338.565 82.4321C339.354 82.6913 340.335 82.9442 341.546 83.1585C346.431 84.0227 349.066 76.2159 345.432 73.4905C343.437 71.9942 341.33 72.889 339.835 74.0003Z"/>
</mask>
<path fill-rule="evenodd" clip-rule="evenodd" d="M339.835 74.0003C339.825 73.4439 339.799 73.1213 339.799 73.1213L337.542 68.7785L322.391 66.1787C322.391 66.1787 310.498 88.3656 325.9 90.1013C333.503 90.9581 336.987 86.8311 338.565 82.4321C339.354 82.6913 340.335 82.9442 341.546 83.1585C346.431 84.0227 349.066 76.2159 345.432 73.4905C343.437 71.9942 341.33 72.889 339.835 74.0003Z" fill="white"/>
<path d="M339.799 73.1213L340.687 72.6601L340.78 72.8397L340.796 73.0413L339.799 73.1213ZM339.835 74.0003L340.432 74.8027L338.871 75.9637L338.836 74.0185L339.835 74.0003ZM337.542 68.7785L337.711 67.7929L338.2 67.8769L338.429 68.3173L337.542 68.7785ZM322.391 66.1787L321.51 65.7062L321.851 65.0713L322.561 65.1931L322.391 66.1787ZM325.9 90.1013L326.012 89.1075L325.9 90.1013ZM338.565 82.4321L337.624 82.0943L337.953 81.1784L338.877 81.482L338.565 82.4321ZM341.546 83.1585L341.372 84.1432H341.372L341.546 83.1585ZM345.432 73.4905L344.832 74.2905L345.432 73.4905ZM339.799 73.1213C340.796 73.0413 340.796 73.0414 340.796 73.0414C340.796 73.0415 340.796 73.0415 340.796 73.0415C340.796 73.0416 340.796 73.0417 340.796 73.0418C340.796 73.042 340.796 73.0422 340.796 73.0424C340.796 73.0428 340.796 73.0433 340.796 73.0439C340.796 73.0451 340.797 73.0466 340.797 73.0484C340.797 73.052 340.797 73.0569 340.798 73.063C340.799 73.0752 340.8 73.0923 340.801 73.1142C340.804 73.1578 340.808 73.2205 340.812 73.3007C340.821 73.4611 340.83 73.6919 340.835 73.9821L338.836 74.0185C338.831 73.7522 338.822 73.5436 338.815 73.4036C338.811 73.3337 338.808 73.2809 338.806 73.2467C338.805 73.2296 338.804 73.2172 338.803 73.2096C338.803 73.2058 338.803 73.2032 338.803 73.2018C338.803 73.2011 338.803 73.2007 338.803 73.2006C338.803 73.2006 338.803 73.2007 338.803 73.2008C338.803 73.2008 338.803 73.2009 338.803 73.201C338.803 73.2011 338.803 73.2011 338.803 73.2012C338.803 73.2012 338.803 73.2013 338.803 73.2013C338.803 73.2013 338.803 73.2014 339.799 73.1213ZM338.429 68.3173L340.687 72.6601L338.912 73.5826L336.655 69.2397L338.429 68.3173ZM322.561 65.1931L337.711 67.7929L337.373 69.7641L322.222 67.1643L322.561 65.1931ZM325.788 91.095C321.645 90.6281 319.161 88.7385 317.943 86.0431C316.767 83.4429 316.849 80.2635 317.386 77.3102C317.928 74.3308 318.962 71.4301 319.85 69.2893C320.296 68.2152 320.708 67.3241 321.01 66.6999C321.161 66.3877 321.285 66.1419 321.371 65.9728C321.415 65.8883 321.449 65.823 321.472 65.7781C321.484 65.7557 321.493 65.7384 321.499 65.7263C321.503 65.7203 321.505 65.7156 321.507 65.7123C321.508 65.7106 321.509 65.7092 321.509 65.7082C321.509 65.7077 321.51 65.7072 321.51 65.707C321.51 65.7066 321.51 65.7062 322.391 66.1787C323.273 66.6512 323.273 66.651 323.273 66.6509C323.273 66.651 323.273 66.651 323.273 66.6512C323.273 66.6515 323.272 66.6522 323.272 66.6532C323.271 66.6553 323.269 66.6586 323.266 66.6633C323.261 66.6726 323.254 66.6871 323.243 66.7067C323.223 66.7459 323.192 66.8054 323.152 66.8838C323.072 67.0406 322.955 67.2731 322.811 67.5709C322.522 68.1669 322.126 69.0228 321.697 70.0558C320.837 72.1293 319.86 74.8837 319.354 77.668C318.843 80.4784 318.839 83.1711 319.765 85.2191C320.648 87.172 322.453 88.7065 326.012 89.1075L325.788 91.095ZM339.507 82.7699C338.675 85.0865 337.313 87.4149 335.082 89.0451C332.83 90.6899 329.798 91.5468 325.788 91.095L326.012 89.1075C329.605 89.5125 332.116 88.7343 333.902 87.4301C335.707 86.1113 336.877 84.1767 337.624 82.0943L339.507 82.7699ZM341.372 84.1432C340.119 83.9216 339.092 83.6577 338.253 83.3822L338.877 81.482C339.617 81.7249 340.55 81.9668 341.72 82.1738L341.372 84.1432ZM346.032 72.6905C348.346 74.4262 348.518 77.6155 347.62 80.0202C346.715 82.4468 344.48 84.6931 341.372 84.1432L341.72 82.1738C343.497 82.4881 345.022 81.2631 345.747 79.321C346.479 77.357 346.151 75.2802 344.832 74.2905L346.032 72.6905ZM339.239 73.1979C340.05 72.5946 341.093 71.9976 342.266 71.7837C343.478 71.5628 344.792 71.7605 346.032 72.6905L344.832 74.2905C344.077 73.7242 343.339 73.6211 342.625 73.7513C341.872 73.8885 341.115 74.2946 340.432 74.8027L339.239 73.1979Z" fill="black" mask="url(#path-49-inside-1_40_660)"/>
<path d="M337.993 79.3992C337.993 79.3992 343.019 68.7784 341.465 64.2435C339.91 59.7086 332.376 64.1253 325.914 60.6613C325.914 60.6613 321.451 58.9109 318.898 62.0942C316.345 65.2775 319.216 70.8464 323.124 69.9749C327.032 69.0959 333.094 67.1904 334.285 69.2584C335.484 71.3265 337.157 71.7253 337.157 71.7253L337.993 79.3992Z" fill="black"/>
<path d="M340.421 106.055C340.421 106.055 340.199 103.337 339.873 100.752C339.548 98.1667 337.927 94.2818 336.957 93.9642C335.988 93.6392 335.988 95.5817 335.988 95.5817C335.988 95.5817 332.42 92.3467 331.125 92.3467C329.83 92.3467 334.041 97.8417 334.041 97.8417C334.041 97.8417 331.451 99.4592 332.095 101.077C332.739 102.694 336.017 107.436 336.017 107.436L340.421 106.055Z" fill="#F9A28B"/>
<path d="M271.13 69.9824L272.218 73.5276" stroke="#2F011C" stroke-width="4" stroke-miterlimit="10"/>
<path d="M278.598 68.9849L273.972 70.3439" stroke="#2F011C" stroke-width="4" stroke-miterlimit="10"/>
<path d="M278.598 71.5334L274.845 71.4521" stroke="#2F011C" stroke-width="4" stroke-miterlimit="10"/>
<path d="M278.435 73.845L274.609 72.811" stroke="#2F011C" stroke-width="4" stroke-miterlimit="10"/>
<path d="M345.972 135.354L350.916 137.577" stroke="#2F011C" stroke-width="4" stroke-miterlimit="10"/>
<path d="M347.008 133.921L349.562 134.792" stroke="#2F011C" stroke-width="4" stroke-miterlimit="10"/>
<path d="M132.829 66.127L136.3 67.6779" stroke="#2F011C" stroke-width="4" stroke-miterlimit="10"/>
<path d="M131.815 67.7959L136.063 68.985" stroke="#2F011C" stroke-width="4" stroke-miterlimit="10"/>
<path d="M131.933 70.0635L135.945 70.418" stroke="#2F011C" stroke-width="4" stroke-miterlimit="10"/>
<path d="M199.152 23.8137C199.152 23.8137 198.856 20.2316 193.89 21.2509" stroke="black" stroke-width="4" stroke-miterlimit="10"/>
<path d="M196.147 23.8727C196.147 23.8727 196.465 22.041 198.382 22.1223" stroke="black" stroke-width="4" stroke-miterlimit="10"/>
<path d="M96.4735 123.175H267.274V127.473H96.4735V123.175Z" fill="#CBCBCB"/>
<path d="M127.685 230.003L118.359 126.402" stroke="#228652" stroke-width="4" stroke-miterlimit="10"/>
<path d="M112.142 127.119L103.764 229.05" stroke="#228652" stroke-width="4" stroke-miterlimit="10"/>
<path d="M125.776 209.47L105.2 209.714" stroke="#228652" stroke-width="4" stroke-miterlimit="10"/>
<path d="M127.685 230.003L118.359 126.402" stroke="#979797" stroke-width="4" stroke-miterlimit="10"/>
<path d="M112.142 127.119L103.764 229.05" stroke="#979797" stroke-width="4" stroke-miterlimit="10"/>
<path d="M125.776 209.47L105.2 209.714" stroke="#228652" stroke-width="4" stroke-miterlimit="10"/>
<path d="M259.976 230.358L250.643 126.757" stroke="#979797" stroke-width="4" stroke-miterlimit="10"/>
<path d="M244.426 127.473L236.055 229.405" stroke="#979797" stroke-width="4" stroke-miterlimit="10"/>
<path d="M258.059 209.833L237.491 210.069" stroke="#228652" stroke-width="4" stroke-miterlimit="10"/>
<path d="M135.945 123.175C135.945 123.175 133.31 112.436 124.939 112.909C116.568 113.389 114.651 123.175 114.651 123.175H135.945Z" fill="#979797"/>
<path d="M130.113 88.4174L125.901 110.294C125.827 110.678 125.45 110.929 125.065 110.855C124.702 110.782 124.458 110.449 124.502 110.087L126.923 88.085C126.967 87.7083 127.3 87.4277 127.678 87.4572L129.469 87.5828C129.891 87.6123 130.194 88.0038 130.113 88.4174Z" fill="#979797"/>
<path d="M130.838 85.8615C129.747 85.8615 128.862 84.9786 128.862 83.8895C128.862 82.8004 129.747 81.9175 130.838 81.9175C131.929 81.9175 132.814 82.8004 132.814 83.8895C132.814 84.9786 131.929 85.8615 130.838 85.8615Z" fill="#979797"/>
<path d="M149.66 96.7779L136.011 84.835C135.664 84.5322 135.138 84.5618 134.827 84.9015C134.524 85.2339 134.531 85.7361 134.842 86.0611L146.536 98.2624C146.721 98.4544 146.995 98.5505 147.261 98.5135L149.215 98.255C149.933 98.1664 150.215 97.2579 149.66 96.7779Z" fill="#979797"/>
<path d="M160.184 106.793L146.817 110.56C146.817 110.56 142.236 101.091 150.622 99.1194C158.652 97.2139 160.184 106.793 160.184 106.793Z" fill="#979797"/>
<path d="M155.938 108.393C155.924 108.325 155.91 108.264 155.897 108.213L151.354 109.5C151.388 109.553 151.427 109.613 151.473 109.68C151.636 109.915 151.874 110.218 152.176 110.493C152.782 111.043 153.612 111.456 154.618 111.054C155.136 110.846 155.463 110.556 155.668 110.244C155.875 109.93 155.966 109.584 155.993 109.254C156.02 108.925 155.983 108.618 155.938 108.393ZM155.844 108.036L155.844 108.036L155.844 108.036Z" fill="white" stroke="black" stroke-width="0.4"/>
<path d="M358.732 185.688L358.576 210.393C358.562 213.075 356.4 215.253 353.714 215.29L333.76 215.586" stroke="#228652" stroke-width="4" stroke-miterlimit="10"/>
<path d="M351.989 174.595C351.989 174.595 356.593 177.63 357.659 181.486" stroke="#228652" stroke-width="4" stroke-miterlimit="10"/>
<path d="M112.52 59.0589L109.929 60.9053L106.421 57.0352" fill="white"/>
<path d="M112.52 59.0589L109.929 60.9053L106.421 57.0352" stroke="#7BD53D" stroke-miterlimit="10"/>
<path d="M78.3036 117.82C78.3036 117.82 83.2328 123.234 86.1933 144.158C89.1539 165.082 85.8825 179.972 85.8825 179.972L79.5914 179.603C79.5988 179.603 80.3389 120.841 78.3036 117.82Z" fill="#6DED02"/>
<path d="M81.634 129.209C81.634 129.209 84.5947 169.262 81.8191 184.403" stroke="#0AC41E" stroke-width="2" stroke-miterlimit="10"/>
<path d="M58.4605 127.237C58.4605 127.237 64.7072 131.063 73.3889 150.34C82.0707 169.61 83.092 184.817 83.092 184.817L76.9489 186.213C76.9489 186.213 61.2582 129.571 58.4605 127.237Z" fill="#6DED02"/>
<path d="M64.8331 137.245C64.8331 137.245 78.8586 174.89 80.4128 190.201" stroke="#0AC41E" stroke-width="2" stroke-miterlimit="10"/>
<path d="M97.7024 137.703C97.7024 137.703 90.945 142.651 85.6308 163.25C80.3167 183.849 83.4771 198.997 83.4771 198.997L91.6333 199.204C91.6333 199.204 94.8529 140.524 97.7024 137.703Z" fill="#6DED02"/>
<path d="M92.588 148.752C92.588 148.752 85.9119 188.436 88.421 203.791" stroke="#0AC41E" stroke-width="2" stroke-miterlimit="10"/>
<path d="M104.423 155.917C104.423 155.917 99.4712 157.933 92.9951 169.854C86.519 181.774 86.1267 191.634 86.1267 191.634L91.1374 193.023C91.1374 193.023 102.225 157.224 104.423 155.917Z" fill="#6DED02"/>
<path d="M99.5453 161.965C99.5453 161.965 89.2649 185.482 88.4359 195.364" stroke="#0AC41E" stroke-width="2" stroke-miterlimit="10"/>
<path d="M55.5001 159.218C55.5001 159.218 60.6958 159.055 69.0741 166.53C77.4524 174.004 79.5173 182.025 79.5173 182.025L74.8397 185.031C74.8397 185.031 57.8759 159.483 55.5001 159.218Z" fill="#6DED02"/>
<path d="M61.31 162.416C61.31 162.416 75.3873 178.088 77.8816 185.969" stroke="#0AC41E" stroke-width="2" stroke-miterlimit="10"/>
<path d="M96.7993 178.864L93.8388 228.334H73.8626L69.0518 177.387L96.7993 178.864Z" fill="#979797"/>
<path d="M96.4293 187.35L69.9769 186.427L69.0518 177.387L96.7993 178.864L96.4293 182.926" stroke="#002F7A" stroke-width="2" stroke-miterlimit="10"/>
<defs>
<linearGradient id="paint0_linear_40_660" x1="183.735" y1="262.216" x2="184.044" y2="219.956" gradientUnits="userSpaceOnUse">
<stop stop-color="white" stop-opacity="0"/>
<stop offset="1" stop-color="#82A9FF" stop-opacity="0.21"/>
</linearGradient>
</defs>
</svg>
