<svg width="347" height="321" viewBox="0 0 347 321" fill="none" xmlns="http://www.w3.org/2000/svg">
<g clip-path="url(#clip0_40_1206)">
<path d="M102.566 28.5719C102.062 28.3077 101.574 28.3201 101.125 28.4606C100.899 28.074 100.501 27.8117 99.9511 27.7379C94.2779 27.018 88.4127 30.5454 87.0657 36.2807C85.8113 41.635 89.1295 47.5616 94.2929 49.3561C99.4982 51.1726 105.793 48.4607 108.101 43.4444C110.675 37.9228 107.904 31.156 102.566 28.5719ZM95.7008 45.8537C92.2218 44.7275 89.9057 40.6683 90.7633 37.092C91.643 33.4736 95.4912 31.0359 99.1113 31.4845C99.4715 31.5123 99.8118 31.476 100.09 31.3536C100.234 31.59 100.464 31.7642 100.8 31.9404C104.31 33.6197 106.388 37.9296 104.741 41.6828C103.338 44.9728 99.1378 46.9578 95.7008 45.8537Z" fill="#82A9FF" fill-opacity="0.21"/>
<path d="M128.323 145.407C127.409 139.184 126.559 132.941 125.645 126.718C125.29 124.331 121.509 124.496 121.864 126.883C122.778 133.106 123.628 139.349 124.542 145.572C124.855 147.937 128.678 147.794 128.323 145.407Z" fill="#82A9FF" fill-opacity="0.21"/>
<path d="M134.704 132.112C128.082 134.223 121.46 136.334 114.816 138.487C112.487 139.252 113.603 142.843 115.952 142.142C122.574 140.031 129.196 137.92 135.84 135.767C138.168 135.002 137.075 131.369 134.704 132.112Z" fill="#82A9FF" fill-opacity="0.21"/>
<path d="M113.722 126.48C104.269 119.591 97.3592 109.688 94.4268 98.3275C91.7535 87.8005 92.7658 76.5757 97.0208 66.6215C98.8878 69.8011 100.713 72.9587 102.58 76.1384C103.832 78.2441 107.035 76.2196 105.783 74.1139C103.527 70.247 101.27 66.3802 98.972 62.4913C99.0382 62.365 99.0824 62.2808 99.1486 62.1545C100.074 60.4923 98.0306 58.6697 96.4401 59.6609C92.4637 62.1388 88.4453 64.5947 84.4689 67.0726C82.4056 68.3527 84.3986 71.5984 86.4839 70.2762C88.6754 68.9559 90.8469 67.5715 93.0384 66.2513C84.2248 88.5771 91.3115 114.891 111.098 129.237C113.086 130.655 115.71 127.897 113.722 126.48Z" fill="#82A9FF" fill-opacity="0.21"/>
<path d="M78.8845 39.936C61.7418 42.8113 46.5524 52.9912 37.339 67.8071C36.0451 69.8664 39.4052 71.628 40.699 69.5687C49.1021 55.992 63.346 46.39 79.0414 43.722C81.4057 43.2976 81.2908 39.5335 78.8845 39.936Z" fill="#82A9FF" fill-opacity="0.21"/>
<path d="M41.9388 89.0598C42.3624 83.8603 38.1719 79.0868 33.0689 78.5048C32.7087 78.477 32.4104 78.5353 32.1541 78.6157C31.9021 78.4835 31.5418 78.4557 31.1375 78.5121C26.1126 79.3131 21.8854 83.6993 22.2243 88.9765C22.5056 93.955 27.067 98.2252 32.0327 98.2521C37.0204 98.2368 41.5196 94.0468 41.9388 89.0598ZM32.4924 94.4135C29.4318 94.6339 26.5111 92.1365 26.105 89.1323C25.6391 85.9357 28.2074 82.7732 31.3584 82.2781C31.5506 82.2178 31.7208 82.1997 31.913 82.1394C32.039 82.2055 32.1871 82.2294 32.3352 82.2534C35.3209 82.5841 38.0338 84.8653 38.2455 88.036C38.3732 91.1626 35.5949 94.215 32.4924 94.4135Z" fill="#82A9FF" fill-opacity="0.21"/>
<path d="M59.719 95.5902C59.6565 94.4839 58.7567 93.8511 57.718 93.7897C56.0009 93.6946 54.2837 93.5995 52.5445 93.5465C51.5058 93.4851 50.7197 94.5759 50.7424 95.554C50.8049 96.6604 51.7047 97.2931 52.7434 97.3546C54.4605 97.4497 56.1777 97.5448 57.9169 97.5977C58.9136 97.6372 59.7637 96.5262 59.719 95.5902Z" fill="#82A9FF" fill-opacity="0.21"/>
<path d="M73.35 96.3491C73.5815 95.3969 72.9046 94.2368 71.9101 94.0911C70.4072 93.8937 68.9464 93.7183 67.4436 93.5208C66.449 93.3751 65.4195 93.909 65.1859 94.9674C64.9544 95.9196 65.6313 97.0797 66.6258 97.2253C68.1286 97.4228 69.5895 97.5982 71.0923 97.7956C72.0869 97.9413 73.1164 97.4075 73.35 96.3491Z" fill="#82A9FF" fill-opacity="0.21"/>
<path d="M101.681 92.2537C101.342 91.1636 100.33 90.8476 99.2867 90.9986C97.3267 91.3666 95.3248 91.7127 93.3648 92.0808C92.3638 92.2538 91.8276 93.583 92.1065 94.4807C92.4453 95.5709 93.4576 95.8869 94.5006 95.7359C96.4605 95.3678 98.4625 95.0218 100.422 94.6537C101.446 94.4386 101.96 93.1515 101.681 92.2537Z" fill="#82A9FF" fill-opacity="0.21"/>
<path d="M122.183 90.1197C120.76 90.1787 119.337 90.2378 117.936 90.2547C115.472 90.3586 115.67 94.1666 118.092 94.0408C119.515 93.9817 120.939 93.9227 122.34 93.9057C124.782 93.844 124.647 90.0159 122.183 90.1197Z" fill="#82A9FF" fill-opacity="0.21"/>
<path d="M143.205 88.5266C141.782 88.5857 140.358 88.6447 138.957 88.6617C136.515 88.7234 136.692 92.5736 139.114 92.4477C140.537 92.3887 141.96 92.3296 143.362 92.3127C145.803 92.2509 145.647 88.4649 143.205 88.5266Z" fill="#82A9FF" fill-opacity="0.21"/>
<path d="M84.442 93.5759C83.8448 92.6724 82.7663 92.4827 81.8229 92.9543C81.2861 93.2633 80.7073 93.5503 80.1705 93.8593C79.2912 94.3109 79.0091 95.666 79.5443 96.4834C80.1415 97.387 81.2201 97.5767 82.1634 97.105C82.7002 96.796 83.2791 96.509 83.8159 96.2C84.7173 95.7063 84.9773 94.3933 84.442 93.5759Z" fill="#82A9FF" fill-opacity="0.21"/>
<path d="M42.7316 130.647C41.2038 125.39 39.676 120.134 38.1261 114.92C37.4308 112.569 33.8205 113.736 34.4738 116.065C36.0016 121.321 37.5294 126.577 39.0793 131.792C39.7746 134.142 43.4269 132.997 42.7316 130.647Z" fill="#82A9FF" fill-opacity="0.21"/>
<path d="M47.2083 118.125C41.1282 120.735 35.0679 123.408 28.9878 126.018C26.7608 126.997 27.8546 130.631 30.1236 129.673C36.2037 127.063 42.2639 124.39 48.3441 121.78C50.5711 120.801 49.4773 117.167 47.2083 118.125Z" fill="#82A9FF" fill-opacity="0.21"/>
<path d="M80.3251 143.915C78.3644 139.076 76.3837 134.173 74.423 129.333C73.5134 127.085 69.8832 128.188 70.7707 130.478C72.7314 135.317 74.7121 140.221 76.6728 145.06C77.6044 147.266 81.2346 146.163 80.3251 143.915Z" fill="#82A9FF" fill-opacity="0.21"/>
<path d="M82.2113 130.411C76.5732 133.198 70.9131 136.028 65.317 138.838C63.1299 139.946 65.1449 143.149 67.3321 142.041C72.9701 139.254 78.6302 136.424 84.2263 133.614C86.3914 132.549 84.3763 129.345 82.2113 130.411Z" fill="#82A9FF" fill-opacity="0.21"/>
<path d="M59.8438 31.7245C57.7684 27.3084 55.7151 22.8501 53.6397 18.4339C52.602 16.2258 49.3988 18.2503 50.4365 20.4584C52.5119 24.8745 54.5652 29.3328 56.6406 33.749C57.6363 35.935 60.8395 33.9106 59.8438 31.7245Z" fill="#82A9FF" fill-opacity="0.21"/>
<path d="M60.0996 19.0832C55.7393 22.7018 51.357 26.3626 46.9547 29.9592C45.0772 31.4977 47.8896 34.0995 49.7252 32.539C54.0854 28.9203 58.4678 25.2596 62.87 21.663C64.7476 20.1244 61.9771 17.5447 60.0996 19.0832Z" fill="#82A9FF" fill-opacity="0.21"/>
<path d="M164.42 88.9137C161.83 88.9515 159.24 88.9893 156.65 89.0271C154.23 89.0467 154.365 92.8748 156.807 92.8131C159.397 92.7753 161.987 92.7376 164.577 92.6998C167.039 92.7022 166.882 88.9162 164.42 88.9137Z" fill="#82A9FF" fill-opacity="0.21"/>
<path d="M184.071 91.0576C184.051 89.9733 183.131 89.2764 182.07 89.257L178.548 89.2353C177.529 89.2379 176.681 90.2427 176.746 91.2428C176.766 92.3271 177.686 93.024 178.747 93.0433C179.914 93.0646 181.102 93.0438 182.269 93.0651C183.31 93.0203 184.158 92.0156 184.071 91.0576Z" fill="#82A9FF" fill-opacity="0.21"/>
<path d="M222.375 93.3715C223.339 87.6505 219.228 82.1133 213.714 80.8862C213.482 80.8182 213.269 80.8144 213.035 80.8526C212.845 80.8066 212.697 80.7827 212.507 80.7367C206.847 80.3996 201.409 84.8488 200.933 90.5574C200.459 96.1598 204.784 101.595 210.351 102.313C215.834 102.986 221.436 98.8379 222.375 93.3715ZM210.535 98.4902C207.003 97.8732 204.276 94.189 204.709 90.605C205.233 86.7464 208.997 84.2646 212.686 84.4806C212.686 84.4806 212.686 84.4806 212.728 84.5027C212.77 84.5247 212.854 84.5687 212.918 84.5486C216.425 85.314 219.241 88.8297 218.699 92.518C218.136 96.2484 214.173 99.1092 210.535 98.4902Z" fill="#82A9FF" fill-opacity="0.21"/>
</g>
<g clip-path="url(#clip1_40_1206)">
<path d="M243.799 171.336C243.38 171.094 242.964 171.087 242.578 171.191C242.4 170.855 242.071 170.618 241.606 170.536C236.809 169.728 231.702 172.523 230.359 177.351C229.108 181.858 231.722 187.009 236.048 188.713C240.409 190.437 245.853 188.35 247.988 184.167C250.367 179.564 248.246 173.717 243.799 171.336ZM237.366 185.785C234.449 184.708 232.621 181.178 233.473 178.168C234.346 175.123 237.701 173.185 240.762 173.692C241.067 173.728 241.358 173.709 241.599 173.614C241.713 173.82 241.902 173.976 242.182 174.137C245.107 175.686 246.723 179.421 245.194 182.554C243.887 185.301 240.249 186.843 237.366 185.785Z" fill="#82A9FF" fill-opacity="0.21"/>
<path d="M261.644 271.521C261.082 266.201 260.576 260.866 260.015 255.546C259.796 253.505 256.577 253.514 256.796 255.555C257.357 260.875 257.863 266.21 258.425 271.53C258.609 273.551 261.863 273.562 261.644 271.521Z" fill="#82A9FF" fill-opacity="0.21"/>
<path d="M267.527 260.443C261.826 262.008 256.125 263.573 250.405 265.172C248.399 265.742 249.223 268.833 251.243 268.318C256.944 266.753 262.645 265.189 268.366 263.589C270.371 263.019 269.568 259.894 267.527 260.443Z" fill="#82A9FF" fill-opacity="0.21"/>
<path d="M249.891 254.93C242.095 248.748 236.566 240.093 234.467 230.337C232.559 221.298 233.808 211.793 237.769 203.481C239.246 206.248 240.687 208.994 242.164 211.761C243.155 213.594 245.947 211.985 244.956 210.152C243.173 206.787 241.389 203.423 239.57 200.038C239.631 199.933 239.672 199.863 239.732 199.758C240.576 198.378 238.903 196.758 237.517 197.545C234.051 199.513 230.551 201.461 227.086 203.43C225.288 204.446 226.87 207.274 228.688 206.222C230.596 205.176 232.489 204.075 234.397 203.028C226.134 221.697 231.246 244.306 247.565 257.183C249.205 258.457 251.531 256.204 249.891 254.93Z" fill="#82A9FF" fill-opacity="0.21"/>
<path d="M223.28 180.174C208.611 182.024 195.35 190.15 187.007 202.422C185.836 204.127 188.63 205.741 189.801 204.035C197.413 192.788 209.851 185.121 223.282 183.397C225.306 183.118 225.339 179.915 223.28 180.174Z" fill="#82A9FF" fill-opacity="0.21"/>
<path d="M190.18 220.643C190.72 216.239 187.324 212.037 183.007 211.366C182.702 211.33 182.447 211.369 182.226 211.428C182.016 211.307 181.711 211.271 181.366 211.305C177.068 211.812 173.323 215.393 173.428 219.89C173.495 224.131 177.224 227.918 181.443 228.112C185.682 228.272 189.651 224.867 190.18 220.643ZM181.967 224.866C179.358 224.947 176.962 222.724 176.721 220.156C176.436 217.424 178.728 214.825 181.423 214.513C181.588 214.469 181.734 214.459 181.899 214.415C182.004 214.475 182.129 214.501 182.254 214.526C184.78 214.911 187.007 216.943 187.077 219.645C187.077 222.307 184.61 224.805 181.967 224.866Z" fill="#82A9FF" fill-opacity="0.21"/>
<path d="M205.065 226.809C205.05 225.866 204.307 225.297 203.426 225.209C201.97 225.069 200.514 224.929 199.038 224.824C198.157 224.735 197.452 225.635 197.437 226.467C197.452 227.41 198.195 227.979 199.075 228.067C200.531 228.207 201.987 228.347 203.464 228.453C204.309 228.521 205.07 227.606 205.065 226.809Z" fill="#82A9FF" fill-opacity="0.21"/>
<path d="M216.623 227.925C216.853 227.124 216.317 226.115 215.477 225.957C214.207 225.737 212.972 225.537 211.701 225.317C210.861 225.159 209.968 225.577 209.732 226.469C209.503 227.27 210.038 228.279 210.878 228.437C212.148 228.657 213.384 228.857 214.654 229.077C215.494 229.235 216.388 228.817 216.623 227.925Z" fill="#82A9FF" fill-opacity="0.21"/>
<path d="M240.842 225.426C240.592 224.488 239.742 224.184 238.851 224.276C237.172 224.521 235.459 224.746 233.78 224.991C232.924 225.104 232.422 226.215 232.628 226.987C232.878 227.925 233.728 228.229 234.619 228.137C236.298 227.892 238.011 227.667 239.689 227.422C240.566 227.275 241.048 226.199 240.842 225.426Z" fill="#82A9FF" fill-opacity="0.21"/>
<path d="M258.34 224.322C257.128 224.323 255.917 224.324 254.726 224.29C252.628 224.293 252.665 227.536 254.728 227.513C255.939 227.512 257.151 227.511 258.342 227.545C260.419 227.577 260.437 224.319 258.34 224.322Z" fill="#82A9FF" fill-opacity="0.21"/>
<path d="M276.261 223.696C275.049 223.697 273.837 223.698 272.646 223.664C270.569 223.632 270.586 226.91 272.648 226.887C273.86 226.886 275.071 226.885 276.263 226.919C278.34 226.951 278.338 223.728 276.261 223.696Z" fill="#82A9FF" fill-opacity="0.21"/>
<path d="M226.146 225.953C225.669 225.164 224.759 224.965 223.941 225.334C223.474 225.578 222.973 225.802 222.506 226.046C221.743 226.399 221.456 227.541 221.883 228.254C222.359 229.043 223.269 229.241 224.087 228.873C224.554 228.629 225.056 228.405 225.523 228.161C226.306 227.773 226.572 226.666 226.146 225.953Z" fill="#82A9FF" fill-opacity="0.21"/>
<path d="M189.414 256.014C188.298 251.494 187.181 246.974 186.044 242.489C185.535 240.467 182.426 241.334 182.901 243.335C184.017 247.855 185.134 252.375 186.27 256.861C186.78 258.882 189.923 258.036 189.414 256.014Z" fill="#82A9FF" fill-opacity="0.21"/>
<path d="M193.652 245.527C188.394 247.534 183.152 249.597 177.894 251.604C175.967 252.359 176.771 255.485 178.733 254.75C183.99 252.742 189.233 250.68 194.491 248.673C196.417 247.917 195.614 244.792 193.652 245.527Z" fill="#82A9FF" fill-opacity="0.21"/>
<path d="M220.904 268.591C219.405 264.411 217.892 260.175 216.393 255.995C215.698 254.053 212.574 254.864 213.249 256.841C214.748 261.022 216.262 265.257 217.76 269.438C218.476 271.345 221.599 270.534 220.904 268.591Z" fill="#82A9FF" fill-opacity="0.21"/>
<path d="M222.974 257.18C218.086 259.354 213.178 261.563 208.325 263.757C206.428 264.623 208.029 267.415 209.926 266.549C214.815 264.375 219.723 262.166 224.576 259.972C226.453 259.142 224.851 256.349 222.974 257.18Z" fill="#82A9FF" fill-opacity="0.21"/>
<path d="M207.382 172.536C205.771 168.711 204.18 164.851 202.569 161.026C201.764 159.113 198.972 160.723 199.777 162.636C201.388 166.461 202.979 170.321 204.59 174.146C205.36 176.038 208.152 174.428 207.382 172.536Z" fill="#82A9FF" fill-opacity="0.21"/>
<path d="M208.037 161.802C204.206 164.726 200.355 167.685 196.489 170.59C194.84 171.832 197.14 174.141 198.754 172.878C202.585 169.953 206.436 166.994 210.302 164.09C211.951 162.847 209.686 160.559 208.037 161.802Z" fill="#82A9FF" fill-opacity="0.21"/>
<path d="M294.277 224.759C292.075 224.702 289.872 224.644 287.67 224.587C285.613 224.52 285.595 227.778 287.672 227.81C289.875 227.867 292.077 227.925 294.279 227.983C296.372 228.07 296.369 224.847 294.277 224.759Z" fill="#82A9FF" fill-opacity="0.21"/>
<path d="M310.904 227.262C310.924 226.34 310.167 225.716 309.266 225.662L306.273 225.522C305.407 225.489 304.652 226.314 304.672 227.166C304.652 228.088 305.409 228.712 306.31 228.765C307.301 228.824 308.312 228.847 309.303 228.906C310.189 228.904 310.945 228.079 310.904 227.262Z" fill="#82A9FF" fill-opacity="0.21"/>
<path d="M343.376 230.555C344.394 225.726 341.092 220.878 336.448 219.644C336.253 219.578 336.073 219.568 335.873 219.592C335.713 219.546 335.588 219.521 335.428 219.475C330.629 218.993 325.854 222.586 325.251 227.421C324.654 232.165 328.142 236.934 332.849 237.737C337.485 238.5 342.39 235.168 343.376 230.555ZM333.137 234.495C330.157 233.848 327.967 230.623 328.459 227.592C329.038 224.331 332.323 222.352 335.45 222.663C335.45 222.663 335.45 222.663 335.485 222.683C335.52 222.703 335.59 222.744 335.645 222.729C338.599 223.501 340.87 226.586 340.282 229.702C339.674 232.853 336.207 235.147 333.137 234.495Z" fill="#82A9FF" fill-opacity="0.21"/>
</g>
<g clip-path="url(#clip2_40_1206)">
<path d="M256.768 81.6638L256.768 81.6641C257.451 83.7664 257.819 86.0283 257.819 88.3978V225.355C257.819 237.457 247.986 247.296 235.893 247.296H131.939C119.846 247.296 110.013 237.457 110.013 225.355V88.3978C110.013 76.2964 119.846 66.4573 131.939 66.4573H235.893C241.307 66.4573 246.302 68.4557 250.142 71.7187C253.193 74.351 255.506 77.7714 256.768 81.6638Z" fill="white" stroke="black"/>
<path d="M248.155 83.1239H137.532C134.95 83.1239 132.799 80.8637 132.799 78.0654C132.799 75.267 134.896 73.0068 137.532 73.0068H241.863C244.767 75.6437 246.972 79.1417 248.155 83.1239Z" fill="#2F70FE"/>
<path d="M161.955 215.237L139.253 192.52L132.827 198.951L155.529 221.668L161.955 215.237Z" fill="#6DED02"/>
<path d="M155.536 192.497L132.834 215.214L139.261 221.644L161.963 198.927L155.536 192.497Z" fill="#6DED02"/>
<path d="M203.287 173.85L180.585 151.133L174.158 157.564L196.86 180.281L203.287 173.85Z" fill="#6DED02"/>
<path d="M196.82 151.138L174.118 173.855L180.544 180.286L203.246 157.568L196.82 151.138Z" fill="#6DED02"/>
<path d="M149.847 150.876C141.619 150.876 135.004 157.549 135.004 165.729C135.004 173.963 141.673 180.582 149.847 180.582C158.075 180.582 164.69 173.909 164.69 165.729C164.69 157.495 158.021 150.876 149.847 150.876ZM149.847 173.909C145.33 173.909 141.673 170.249 141.673 165.729C141.673 161.209 145.33 157.549 149.847 157.549C154.364 157.549 158.021 161.209 158.021 165.729C158.021 170.249 154.364 173.909 149.847 173.909Z" fill="#6DED02"/>
<path d="M222.395 104.65C214.166 104.65 207.552 111.323 207.552 119.502C207.552 127.736 214.22 134.355 222.395 134.355C230.623 134.355 237.238 127.682 237.238 119.502C237.238 111.323 230.569 104.65 222.395 104.65ZM222.395 127.736C217.877 127.736 214.22 124.077 214.22 119.556C214.22 115.036 217.877 111.376 222.395 111.376C226.912 111.376 230.569 115.036 230.569 119.556C230.569 124.077 226.912 127.736 222.395 127.736Z" fill="#6DED02"/>
<path d="M232.398 147.809C229.762 144.795 227.127 141.781 224.492 138.822C223.847 138.122 222.717 138.391 222.233 139.091C221.911 139.575 221.642 140.006 221.319 140.49C221.158 140.598 220.943 140.759 220.835 140.92C219.168 143.504 217.555 146.14 215.887 148.724C214.919 150.284 217.339 151.683 218.361 150.177C219.383 148.616 220.405 147.055 221.427 145.495C224.438 159.379 226.912 174.501 219.921 187.524C216.963 193.013 212.446 197.856 206.53 200.116C199.539 202.807 191.579 201.784 184.965 198.556C177.651 195.004 171.843 189.084 167.056 182.573C165.981 181.12 163.507 182.519 164.582 184.026C173.617 196.295 187.654 207.381 203.895 203.883C218.469 200.708 226.213 185.64 227.181 171.81C227.88 161.854 225.783 151.899 223.685 142.212C225.944 144.741 228.149 147.324 230.408 149.854C231.591 151.199 233.581 149.154 232.398 147.809Z" fill="#6DED02"/>
</g>
<defs>
<clipPath id="clip0_40_1206">
<rect width="187.415" height="129.502" fill="white" transform="translate(60.2522) rotate(27.6672)"/>
</clipPath>
<clipPath id="clip1_40_1206">
<rect width="159.409" height="110.15" fill="white" transform="translate(208.827 145.589) rotate(30)"/>
</clipPath>
<clipPath id="clip2_40_1206">
<rect width="148.806" height="181.785" fill="white" transform="translate(109.513 65.9573)"/>
</clipPath>
</defs>
</svg>
