<svg width="200" height="28" viewBox="0 0 200 28" fill="none" xmlns="http://www.w3.org/2000/svg">
<g clip-path="url(#clip0_40_27)">
<path d="M142.927 8V0H134.927L142.927 8Z" fill="url(#paint0_linear_40_27)"/>
<path d="M31.5942 8.49635C37.7102 8.49635 42.1739 12.4964 42.1739 18.219C42.1739 23.9416 37.6522 28 31.5942 28C25.5363 28 20.9565 24.0876 20.9565 18.219C20.9565 12.4964 25.4493 8.49635 31.5942 8.49635ZM55.6812 9.0219C58.4348 9.0219 61.0145 10.1314 61.9131 12.4672C63.3044 10.1898 65.7392 8.87591 68.2899 9.0219C73.0145 9.0219 77.0145 10.9197 77.0145 18.4818V28.0292H71.7681V18.4526C71.7681 14.6861 70.3478 13.3139 68.2319 13.2555C65.3334 13.2555 63.8261 15.5036 63.8261 18.5985V28.0292H58.6377V18.5693C58.6377 14.8029 57.3044 13.2555 55.1884 13.2263C52.8116 13.2263 50.6957 14.7153 50.6957 18.7737V28.0292H45.4493V9.34307H49.7971L50.2319 11.6204C51.5073 9.83942 53.5652 8.87591 55.6812 9.0219ZM113.391 8.9927C118.116 8.9927 123.217 11.1825 123.217 18.4526V28H117.942V18.3358C118.116 17.0219 117.739 15.708 116.87 14.7153C116.029 13.7518 114.812 13.1971 113.536 13.2555C112.232 13.1387 110.928 13.635 109.971 14.6277C109.043 15.5912 108.522 16.9635 108.609 18.3358V28H103.391V9.31387H107.855L108.319 11.5912C109.536 9.92701 111.391 8.9635 113.391 8.9927ZM178.609 9.0219C181.333 9.0219 183.971 10.1314 184.928 12.4672C186.29 10.219 188.696 8.90511 191.246 9.0219C196 9.0219 199.971 10.9197 199.971 18.4818V28.0292H194.783V18.4526C194.783 14.6861 193.362 13.3139 191.246 13.2555C188.348 13.2555 186.812 15.5036 186.812 18.5985V28.0292H181.623V18.5401C181.623 14.7737 180.29 13.2263 178.174 13.1971C175.797 13.1971 173.652 14.6861 173.652 18.7445V28H168.435V9.34307H172.783L173.217 11.6204C174.493 9.86861 176.522 8.87591 178.609 9.0219ZM133.652 0V8.78832H140.493V12.6131H133.652V19.6788C133.652 20.9343 134.203 22.1314 135.159 22.8905C136.058 23.6204 137.246 23.8832 138.348 23.5912L138.493 23.562L141.594 26.7445L141.362 26.8613C139.971 27.5912 138.464 27.9708 136.899 28C131.565 27.9124 128.667 24.5839 128.609 19.854V19.6788V12.6131H125.101V8.78832H128.609V0H133.652ZM163.71 9.34307V27.708H159.246L158.754 25.4307C157.594 27.0949 155.71 28.0584 153.739 28.0292C149.044 28.0876 144.029 25.8686 143.913 18.7737V18.5693V8.9927L149.188 14.365V18.6569C149.015 19.9708 149.391 21.2847 150.261 22.2774C151.101 23.2409 152.319 23.7956 153.594 23.7372C154.899 23.854 156.203 23.3285 157.13 22.365C158.029 21.4307 158.522 20.146 158.493 18.8321V18.6861V9.34307H163.71ZM90.058 8.49635C96.6377 8.49635 100.609 13.1971 100.058 20.1752H85.1305C85.6522 22.9489 88.1739 23.7372 90.3768 23.7372C91.1305 23.7372 91.9131 23.6496 92.6377 23.4453L95.7971 26.6277C93.971 27.5912 91.971 28.0876 89.9421 28C84.058 28 79.8551 24.0292 79.8551 18.2482C79.8551 12.4672 84.087 8.49635 90.058 8.49635ZM26.9565 15.4745C25.971 17.1679 25.971 19.2993 26.9565 21.0219C27.942 22.7153 29.7392 23.7372 31.6522 23.6204C33.0435 23.6788 34.3768 23.1241 35.3334 22.1022C36.3189 21.0803 36.8406 19.708 36.8116 18.2482H36.8986C36.9276 16.7883 36.3768 15.3869 35.3913 14.365C34.4058 13.3431 33.0435 12.8175 31.6522 12.8759C29.7392 12.7883 27.942 13.781 26.9565 15.4745ZM95.1594 16.3212C94.4638 14.0438 92.3768 12.6131 90.116 12.8175C87.8841 12.6131 85.8261 14.0438 85.1305 16.3212H95.1594Z" fill="black"/>
<path d="M15.0145 9.34326H19.1594L8.31884 23.971H19.4203V28.0002H0L10.8696 13.3433H0.057971V9.34326H15.0145V9.34326Z" fill="black"/>
</g>
<defs>
<linearGradient id="paint0_linear_40_27" x1="142.344" y1="0.133402" x2="139.083" y2="3.77858" gradientUnits="userSpaceOnUse">
<stop offset="0.1195" stop-color="#2F70FE"/>
<stop offset="0.469" stop-color="#089DEE"/>
<stop offset="0.7684" stop-color="#09D191"/>
<stop offset="0.974" stop-color="#6DED02"/>
</linearGradient>
<clipPath id="clip0_40_27">
<rect width="200" height="28" fill="white"/>
</clipPath>
</defs>
</svg>
