<svg width="16" height="16" viewBox="0 0 16 16" fill="none" xmlns="http://www.w3.org/2000/svg">
<path fill-rule="evenodd" clip-rule="evenodd" d="M9.33325 4.66667C9.33325 3.93133 8.73525 3.33333 7.99992 3.33333C7.26459 3.33333 6.66659 3.93133 6.66659 4.66667C6.66659 5.402 7.26459 6 7.99992 6C8.73525 6 9.33325 5.402 9.33325 4.66667ZM10.6666 4.66667C10.6666 6.13733 9.47059 7.33333 7.99992 7.33333C6.52925 7.33333 5.33325 6.13733 5.33325 4.66667C5.33325 3.196 6.52925 2 7.99992 2C9.47059 2 10.6666 3.196 10.6666 4.66667ZM3.33325 13.3333C3.33325 10.76 5.42725 8.66667 7.99992 8.66667C10.5726 8.66667 12.6666 10.76 12.6666 13.3333C12.6666 13.7013 12.3686 14 11.9999 14C11.6313 14 11.3333 13.7013 11.3333 13.3333C11.3333 11.4953 9.83792 10 7.99992 10C6.16192 10 4.66659 11.4953 4.66659 13.3333C4.66659 13.7013 4.36859 14 3.99992 14C3.63125 14 3.33325 13.7013 3.33325 13.3333Z" fill="#231F20"/>
<mask id="mask0_40_13" style="mask-type:luminance" maskUnits="userSpaceOnUse" x="3" y="2" width="10" height="12">
<path fill-rule="evenodd" clip-rule="evenodd" d="M9.33325 4.66667C9.33325 3.93133 8.73525 3.33333 7.99992 3.33333C7.26459 3.33333 6.66659 3.93133 6.66659 4.66667C6.66659 5.402 7.26459 6 7.99992 6C8.73525 6 9.33325 5.402 9.33325 4.66667ZM10.6666 4.66667C10.6666 6.13733 9.47059 7.33333 7.99992 7.33333C6.52925 7.33333 5.33325 6.13733 5.33325 4.66667C5.33325 3.196 6.52925 2 7.99992 2C9.47059 2 10.6666 3.196 10.6666 4.66667ZM3.33325 13.3333C3.33325 10.76 5.42725 8.66667 7.99992 8.66667C10.5726 8.66667 12.6666 10.76 12.6666 13.3333C12.6666 13.7013 12.3686 14 11.9999 14C11.6313 14 11.3333 13.7013 11.3333 13.3333C11.3333 11.4953 9.83792 10 7.99992 10C6.16192 10 4.66659 11.4953 4.66659 13.3333C4.66659 13.7013 4.36859 14 3.99992 14C3.63125 14 3.33325 13.7013 3.33325 13.3333Z" fill="white"/>
</mask>
<g mask="url(#mask0_40_13)">
<rect width="16" height="16" fill="black"/>
</g>
</svg>
