<svg width="257" height="261" viewBox="0 0 257 261" fill="none" xmlns="http://www.w3.org/2000/svg">
<path d="M121.445 37.7402H204.445V236.74H121.445V37.7402Z" fill="#82A9FF" fill-opacity="0.21"/>
<g clip-path="url(#clip0_40_1056)">
<path d="M70.9505 79.7403C85.0306 79.7403 96.4447 68.2303 96.4447 54.0319C96.4447 39.8335 85.0306 28.3235 70.9505 28.3235C56.8704 28.3235 45.4562 39.8335 45.4562 54.0319C45.4562 68.2303 56.8704 79.7403 70.9505 79.7403Z" fill="#F3F2FF"/>
<path d="M70.9505 54.0317L73.0852 79.6479C72.3838 79.7094 71.6519 79.7402 70.9505 79.7402C56.8615 79.7402 45.4562 68.239 45.4562 54.0317H70.9505V54.0317Z" fill="#B5B9FF"/>
<path d="M70.9505 54.0319H45.4562C45.4562 49.3577 46.7065 44.9602 48.8717 41.1777L70.9505 54.0319Z" fill="#D9DAFF"/>
<path d="M70.7064 54.4623L46.4015 40.3165L46.6455 39.886C49.1156 35.5808 52.6836 32.0136 56.953 29.5227C61.0699 27.1241 65.8577 25.7402 70.9504 25.7402H71.4383V54.8621L70.7064 54.4623ZM47.7128 39.9475L70.4625 53.2015V26.7243C65.7052 26.8165 61.2528 28.1081 57.4104 30.353C53.446 32.6594 50.0915 35.9806 47.7128 39.9475Z" fill="white"/>
<path d="M55.7941 36.5342L47.0114 31.4294H12.9479V30.5684H47.2249L56.221 35.7961L55.7941 36.5342Z" fill="#EEEDFF"/>
<path d="M47.2859 51.8792L40.3024 50.0034H12.8564V49.1423H40.4244L47.4994 51.0489L47.2859 51.8792Z" fill="#EEEDFF"/>
<path d="M53.6289 70.8528L51.0673 73.436H12.2465V72.6057H50.7318L53.0495 70.2686L53.6289 70.8528Z" fill="#EEEDFF"/>
<path d="M1.512 28.0159H5.38493C5.6289 28.0159 5.84237 28.2311 5.84237 28.4771V32.3826C5.84237 32.6286 5.6289 32.8439 5.38493 32.8439H1.512C1.26803 32.8439 1.05457 32.6286 1.05457 32.3826V28.4771C1.05457 28.2311 1.26803 28.0159 1.512 28.0159Z" fill="#EEEDFF"/>
<path d="M7.03177 28.0159H10.9047C11.1487 28.0159 11.3621 28.2311 11.3621 28.4771V32.3826C11.3621 32.6286 11.1487 32.8439 10.9047 32.8439H7.03177C6.78781 32.8439 6.57434 32.6286 6.57434 32.3826V28.4771C6.57434 28.2311 6.75731 28.0159 7.03177 28.0159Z" fill="#EEEDFF"/>
<path d="M2.21341 47.4509H6.08635C6.33032 47.4509 6.54378 47.6662 6.54378 47.9122V51.8177C6.54378 52.0637 6.33032 52.2789 6.08635 52.2789H2.21341C1.96945 52.2789 1.75598 52.0637 1.75598 51.8177V47.9122C1.75598 47.6662 1.96945 47.4509 2.21341 47.4509Z" fill="#D9DAFF"/>
<path d="M0.902136 70.0842H4.77507C5.01904 70.0842 5.23251 70.2995 5.23251 70.5455V74.451C5.23251 74.697 5.01904 74.9122 4.77507 74.9122H0.902136C0.658171 74.9122 0.444702 74.697 0.444702 74.451V70.5455C0.444702 70.2995 0.658171 70.0842 0.902136 70.0842Z" fill="#B5B9FF"/>
<path d="M6.42179 70.0842H10.2947C10.5387 70.0842 10.7522 70.2995 10.7522 70.5455V74.451C10.7522 74.697 10.5387 74.9122 10.2947 74.9122H6.42179C6.17782 74.9122 5.96436 74.697 5.96436 74.451V70.5455C5.96436 70.2995 6.14733 70.0842 6.42179 70.0842Z" fill="#B5B9FF"/>
</g>
<g clip-path="url(#clip1_40_1056)">
<path d="M137.653 67.7968C141.021 67.7019 143.822 70.3623 143.917 73.7465C143.993 76.434 142.324 78.7722 139.971 79.6853C142.468 82.1053 144.098 85.4462 144.205 89.2286C144.292 92.3142 143.332 95.1803 141.712 97.5171C141.811 97.5143 141.96 97.5101 142.059 97.5073C149.489 97.2979 155.702 103.199 155.913 110.664C156.123 118.13 150.252 124.372 142.822 124.581C135.393 124.79 129.179 118.889 128.969 111.424C128.883 108.388 129.795 105.573 131.366 103.287C131.218 103.292 131.069 103.296 130.921 103.3C123.341 103.464 117.076 97.5142 116.863 89.9494C116.65 82.3847 122.57 76.0915 130.098 75.8793C130.742 75.8612 131.387 75.8928 132.034 75.9742C131.819 75.3825 131.703 74.7881 131.683 74.0914C131.638 70.7057 134.285 67.8917 137.653 67.7968ZM160.178 98.441C162.06 98.3879 163.588 99.8391 163.642 101.73C163.695 103.621 162.251 105.156 160.369 105.209C158.487 105.262 156.959 103.811 156.906 101.92C156.852 100.029 158.296 98.494 160.178 98.441ZM151.566 127.024C152.953 126.985 154.124 128.098 154.163 129.491C154.203 130.885 153.096 132.061 151.709 132.101C150.322 132.14 149.15 131.027 149.111 129.634C149.072 128.24 150.179 127.063 151.566 127.024Z" fill="#DBD9FF"/>
<path d="M186.27 48.0972L174.809 51.2593C174.809 51.2593 157.291 64.6034 138.857 91.1724L139.502 114.066C154.033 94.9782 171.426 75.4117 188.509 64.2216L186.27 48.0972Z" fill="#DBD9FF"/>
<path d="M235.397 0.740364C235.397 0.740364 236.717 21.1741 204.341 52.5688C204.341 52.5688 204.364 62.181 202.92 63.7159C201.476 65.2509 193.167 72.9562 193.167 72.9562C193.167 72.9562 191.845 73.5413 191.468 72.4562C191.09 71.3711 189.356 62.604 189.356 62.604L188.511 64.2715C188.511 64.2715 185.965 65.3892 180.818 60.4041C180.818 60.4041 179.045 62.5958 177.112 62.6005C177.009 60.7107 179.086 58.7595 179.086 58.7595C173.843 53.8767 174.81 51.2595 174.81 51.2595L176.419 50.3176C176.419 50.3176 167.561 49.073 166.511 48.754C165.411 48.4363 165.918 47.0772 165.918 47.0772C165.918 47.0772 173.106 38.3077 174.55 36.7728C175.994 35.2379 185.546 34.7196 185.546 34.7196C214.868 0.472287 235.397 0.740364 235.397 0.740364Z" fill="white"/>
<path d="M235.397 0.740417C235.397 0.740417 236.716 21.1741 204.34 52.5689C204.34 52.5689 204.363 62.1811 202.919 63.716C201.476 65.2509 193.167 72.9562 193.167 72.9562C193.167 72.9562 191.845 73.5414 191.467 72.4562C191.09 71.3711 189.356 62.6041 189.356 62.6041L188.51 64.2716C188.51 64.2716 186.846 65.0158 183.508 62.6693C211.42 50.5264 235.397 0.740417 235.397 0.740417Z" fill="#DBD9FF"/>
<path d="M189.673 61.5492C187.47 60.7646 185.253 59.4823 183.272 57.7949C188.898 51.6594 197.127 41.1173 197.127 41.1173C191.562 45.9062 185.008 52.5659 181.54 56.1502C179.804 54.3563 178.356 52.2056 177.395 49.7921L176.417 50.2679L174.808 51.2098C174.808 51.2098 173.841 53.827 179.084 58.7098C179.084 58.7098 177.006 60.6113 177.111 62.5508C178.994 62.5475 180.816 60.3545 180.816 60.3545C185.963 65.3396 188.509 64.2218 188.509 64.2218L189.354 62.5544L189.673 61.5492Z" fill="#6DED02"/>
<path d="M189.673 61.5491L189.356 62.604C189.356 62.604 191.091 71.4208 191.467 72.4562C191.845 73.5413 193.167 72.9561 193.167 72.9561C193.167 72.9561 201.476 65.2508 202.919 63.7159C204.363 62.181 204.34 52.5688 204.34 52.5688C201.543 55.3372 191.372 62.0491 191.372 62.0491C190.774 61.9165 190.223 61.7328 189.673 61.5491Z" fill="#6DED02"/>
<path d="M176.807 48.2644C177.8 44.7997 185.496 34.7209 185.496 34.7209C185.496 34.7209 175.944 35.2392 174.5 36.7741C173.057 38.309 165.868 47.0785 165.868 47.0785C165.868 47.0785 165.361 48.4376 166.461 48.7553C167.56 49.0729 176.369 50.3189 176.369 50.3189L177.347 49.843C177.183 49.2998 176.97 48.7579 176.807 48.2644Z" fill="#6DED02"/>
<path d="M216.455 7.54994C221.146 13.9425 226.212 17.8341 229.692 19.9276C235.844 7.80036 235.397 0.740286 235.397 0.740286C235.397 0.740286 228.305 0.641318 216.455 7.54994Z" fill="#6DED02"/>
<path d="M226.104 17.4886C227.421 18.4974 228.584 19.3114 229.642 19.929C235.844 7.80042 235.397 0.740353 235.397 0.740353C235.397 0.740353 231.931 7.91071 226.104 17.4886Z" fill="#2F70FE"/>
<path d="M207.992 36.1786C211.548 36.0784 214.35 33.1005 214.249 29.5273C214.148 25.9541 211.184 23.1387 207.628 23.2389C204.072 23.3392 201.27 26.3171 201.371 29.8902C201.472 33.4634 204.436 36.2788 207.992 36.1786Z" fill="#6DED02"/>
<path d="M207.959 34.9844C210.858 34.9026 213.142 32.4745 213.06 29.561C212.978 26.6475 210.561 24.3518 207.661 24.4336C204.762 24.5153 202.478 26.9434 202.56 29.8569C202.642 32.7705 205.059 35.0661 207.959 34.9844Z" fill="white"/>
<path d="M210.831 26.0875C212.919 28.0708 213.013 31.4052 211.041 33.5527C210.464 34.1667 209.733 34.6356 208.948 34.9067C209.933 34.6797 210.909 34.1541 211.631 33.3867C213.605 31.289 213.511 27.9545 211.421 25.9215C209.944 24.5187 207.901 24.128 206.085 24.7769C207.759 24.3811 209.507 24.8299 210.831 26.0875Z" fill="#DBD9FF"/>
<path d="M212.547 34.2076C210.092 36.817 205.981 36.9328 203.384 34.4659C201.907 33.0631 201.258 31.1389 201.354 29.2933C200.87 31.4487 201.53 33.771 203.212 35.417C205.81 37.884 209.921 37.7681 212.375 35.1588C213.434 34.0332 214.039 32.6215 214.147 31.174C213.928 32.2262 213.363 33.288 212.547 34.2076Z" fill="#DBD9FF"/>
<path d="M185.197 59.2844L197.604 40.4561L196.258 41.9385C196.548 41.6813 196.838 41.424 197.129 41.1668C197.129 41.1668 188.898 51.6591 183.273 57.8444C183.882 58.3253 184.539 58.8049 185.197 59.2844Z" fill="#DBD9FF"/>
<path d="M182.232 34.9623L173.63 49.8482C175.223 50.1021 176.467 50.2663 176.467 50.2663L177.445 49.7905C177.233 49.2984 177.069 48.7551 176.905 48.2118C177.898 44.7471 185.594 34.6683 185.594 34.6683C185.594 34.6683 184.062 34.8111 182.232 34.9623Z" fill="#2F70FE"/>
<path d="M204.34 52.5687C201.543 55.3372 191.372 62.049 191.372 62.049C190.823 61.9151 190.273 61.7313 189.722 61.5476L189.405 62.6025C189.405 62.6025 189.811 64.683 190.27 66.9114L204.313 55.1097C204.32 53.6152 204.34 52.5687 204.34 52.5687Z" fill="#2F70FE"/>
<path d="M176.997 33.9143C176.997 33.9143 153.496 53.0553 142.163 71.3054C142.213 71.304 150.856 49.0953 176.997 33.9143Z" fill="white"/>
</g>
<path fill-rule="evenodd" clip-rule="evenodd" d="M155.904 235.29C168.921 238.719 191.286 239.87 219.766 239.692C246.198 239.712 256.789 242.429 256.392 247.203C253.326 254.607 209.626 258.392 134.625 258.549C72.7095 258.742 43.8462 254.304 35.5089 246.632C22.8466 233.42 115.985 224.949 155.904 235.29Z" fill="url(#paint0_linear_40_1056)"/>
<g clip-path="url(#clip2_40_1056)">
<path d="M128.955 15.7767C128.955 15.7767 139.838 14.2628 142.025 12.749C142.025 12.749 146.543 12.749 146.932 14.8488C146.932 14.8488 144.308 18.023 147.612 23.004C147.612 23.004 148.098 20.8065 150.09 20.6112L149.799 12.8466C149.799 12.8466 150.285 7.71913 145.766 5.66812C141.247 3.61711 131.336 5.37512 128.615 8.50046L127.594 11.5281H126.768C126.768 11.4793 125.554 15.3372 128.955 15.7767Z" fill="url(#paint1_linear_40_1056)"/>
<path d="M146.981 14.7999C146.981 14.7999 144.357 17.9741 147.661 22.9551C147.661 22.9551 148.147 20.7576 150.139 20.5623L149.847 13.3349C148.001 13.0907 146.981 14.7999 146.981 14.7999Z" fill="#4F4387"/>
<path d="M136.097 44.4419C136.217 44.6021 136.217 44.6021 136.217 44.602L136.217 44.6017L136.219 44.6005L136.225 44.5958L136.25 44.5773L136.347 44.5048C136.432 44.4412 136.556 44.3477 136.714 44.2279C137.032 43.9883 137.486 43.6437 138.034 43.2233C139.13 42.3826 140.603 41.2386 142.108 40.0255C143.612 38.8129 145.151 37.5296 146.378 36.4108C146.992 35.8516 147.53 35.3313 147.948 34.8802C148.232 34.5735 148.468 34.2912 148.633 34.0453C149.177 34.9381 149.855 35.7935 150.567 36.6398C150.528 36.6966 150.476 36.772 150.412 36.8657C150.255 37.0975 150.026 37.4408 149.74 37.888C149.169 38.7792 148.368 40.0833 147.447 41.7396L140.606 49.8571L135.804 44.8889L135.682 44.7634L135.542 44.8665L132.654 46.9812L133.12 43.6164L133.216 43.6164L133.235 43.4379L133.471 41.2637C133.634 41.4861 133.801 41.7152 133.968 41.9451C134.734 42.9957 135.511 44.063 135.945 44.5716L136.067 44.7142L136.217 44.6021L136.097 44.4419Z" fill="white" stroke="black" stroke-width="0.4"/>
<path d="M140.616 50.1555L135.66 45.0768L132.259 47.5673C130.898 49.0811 121.424 59.971 120.646 69.347C119.82 79.4556 120.646 100.259 117.926 110.123C117.683 111.051 117.44 111.93 117.197 112.809C118.8 113.541 121.084 114.372 123.513 114.567C127.109 114.811 137.458 114.225 142.365 113.883C139.838 105.435 137.02 93.6173 136.583 81.4089C136 65.1474 143.288 49.6183 147.661 41.8538L140.616 50.1555Z" fill="white"/>
<path d="M147.612 41.8048C143.239 49.6181 135.951 65.0984 136.534 81.36C136.972 93.5683 139.79 105.386 142.316 113.834C143.434 117.497 144.454 120.524 145.28 122.673L148.195 122.282C148.195 122.282 148.195 122.282 148.244 122.234C149.556 121.159 150.77 120.036 151.888 118.766C161.751 107.535 162.286 89.7593 162.286 89.7593C154.074 55.6247 163.986 45.4185 163.986 45.4185C163.986 45.4185 155.775 41.9024 150.868 36.5796C150.819 36.6284 149.507 38.5329 147.612 41.8048Z" fill="#36336B"/>
<path d="M145.134 122.234C145.183 122.429 145.28 122.575 145.329 122.722L148.244 122.331C148.244 122.331 148.244 122.331 148.293 122.282C149.604 121.208 150.819 120.085 151.937 118.815C161.8 107.584 162.334 89.8082 162.334 89.8082C156.99 67.4912 159.322 55.4293 161.605 49.7158C161.605 49.7158 153.589 60.4104 155.824 100.698C155.775 100.698 156.309 114.616 145.134 122.234Z" fill="#27254D"/>
<path d="M163.938 45.4673C163.938 45.4673 154.026 55.6735 162.237 89.8081C162.237 89.8081 161.703 107.584 151.839 118.815C154.657 120.622 159.37 123.259 163.549 123.943C165.784 120.866 168.116 117.448 168.748 115.934L177.396 95.8635C177.396 95.8635 172.489 62.1684 172.489 48.8856C172.537 48.8856 169.476 46.6393 163.938 45.4673Z" fill="#36336B"/>
<path d="M156.261 121.355C158.544 122.527 161.168 123.552 163.597 123.992C165.832 120.915 168.165 117.497 168.796 115.983L177.445 95.9124C177.445 95.9124 172.537 62.2173 172.537 48.9346C172.537 48.9346 171.031 47.8602 168.262 46.7859C169.622 54.7458 170.837 65.4891 168.505 68.8098C164.666 74.2792 178.416 87.1224 172.732 94.2032C168.699 99.2331 159.225 111.832 156.261 121.355Z" fill="#27254D"/>
<path d="M163.549 123.992C159.37 123.259 154.657 120.622 151.839 118.864C150.77 120.134 149.556 121.257 148.195 122.331C148.195 122.331 152.714 127.654 157.233 129.754L158.836 130.291C158.884 130.291 161.168 127.312 163.549 123.992Z" fill="white"/>
<path d="M118.509 64.0242C118.509 64.0242 116.274 81.8973 114.962 86.7318C114.962 86.7318 108.84 105.533 110.2 128.875L112.338 128.729C112.338 128.729 114.719 121.55 117.197 112.809C117.44 111.93 117.683 111.051 117.926 110.123C120.647 100.259 119.772 79.4556 120.647 69.3471C121.424 59.9222 130.898 49.0812 132.259 47.5673C132.356 47.4697 132.405 47.372 132.405 47.372L132.939 43.5142C131.967 44.149 123.562 49.716 122.298 50.9369C121.473 51.767 120.355 58.3107 118.509 64.0242Z" fill="#36336B"/>
<path d="M114.962 86.7318C116.274 81.8972 118.509 64.0242 118.509 64.0242C117.488 67.2472 116.176 70.1772 114.573 71.7887C114.573 71.7887 103.69 72.0329 96.0614 66.6123C96.0614 66.6123 93.9236 69.1517 93.5835 74.621L94.701 79.8951C94.701 79.9439 107.674 87.6108 114.962 86.7318Z" fill="#36336B"/>
<path d="M114.962 86.7318C116.274 81.8972 118.509 64.0242 118.509 64.0242C117.488 67.2472 116.176 70.1772 114.573 71.7887C114.573 71.7887 115.156 78.9184 113.504 82.7762C113.504 82.7762 100.726 80.6276 93.9722 76.2814L94.701 79.8951C94.701 79.9439 107.674 87.6108 114.962 86.7318Z" fill="#27254D"/>
<path d="M95.3643 66.7759C95.3437 66.8072 95.3223 66.8402 95.3002 66.875C95.0816 67.2188 94.7914 67.7297 94.492 68.414C93.9731 69.5997 93.4279 71.3027 93.1781 73.5534L89.0437 69.398C89.2013 67.293 90.0209 65.8005 90.8082 64.8267C91.2165 64.3216 91.6168 63.9555 91.9121 63.7175C91.9608 63.6782 92.0067 63.6424 92.0491 63.6102L92.2345 63.8151C93.1692 64.9323 94.2239 65.9312 95.3643 66.7759ZM92.3787 63.3811C92.3789 63.381 92.3789 63.381 92.3788 63.3811L92.3787 63.3811Z" fill="white" stroke="black"/>
<path d="M90.079 64.1493C89.2198 65.2121 88.3381 66.81 88.1175 69.0167C88.0048 69.0285 87.8891 69.0481 87.7743 69.0717C87.4483 69.1389 87.0722 69.2513 86.7034 69.3629L86.6855 69.3683C85.9199 69.5997 85.1906 69.8202 84.656 69.8236C84.603 69.8196 84.4986 69.7935 84.3346 69.7124C84.1695 69.6309 83.9768 69.5102 83.7633 69.356C83.3363 69.0477 82.8645 68.6332 82.419 68.2095C82.011 67.8214 81.6333 67.4335 81.344 67.1271L82.0247 66.946L83.8058 67.7516L84.2625 67.9581L84.4667 67.5036C84.4665 67.5041 84.4664 67.5042 84.4665 67.5041L84.4667 67.5035L84.469 67.4988C84.472 67.4926 84.4778 67.4812 84.4865 67.4648C84.504 67.4322 84.5333 67.3803 84.5762 67.313C84.6619 67.1784 84.8021 66.9825 85.011 66.756C85.4277 66.3041 86.1225 65.7252 87.2174 65.2667L87.5395 65.1318L87.5237 64.7829L87.5237 64.7829V64.7829L87.5237 64.7827L87.5237 64.7817L87.5235 64.7775L87.5227 64.76L87.5199 64.6913C87.5176 64.6313 87.5144 64.5437 87.5111 64.4345C87.5043 64.216 87.4968 63.9115 87.4938 63.5681C87.4878 62.8747 87.5004 62.0463 87.5695 61.4442L87.6358 60.8666L87.0555 60.8875L87.0553 60.8875L87.0551 60.8875L87.0551 60.8875L87.0549 60.8875L87.0516 60.8876L87.0335 60.888C87.0167 60.8882 86.9907 60.8885 86.9565 60.8884C86.8882 60.8881 86.788 60.8862 86.6651 60.8795C86.4178 60.866 86.0857 60.8333 85.7395 60.7581C85.6482 60.7383 85.5589 60.7162 85.472 60.6917C86.2041 60.7032 86.9283 60.6406 87.5513 60.5582C88.1443 60.4798 88.6618 60.3811 89.0314 60.3019C89.1398 60.2787 89.2356 60.2572 89.3172 60.2382L91.4436 62.8028C91.4082 62.8302 91.3713 62.8593 91.333 62.8902C90.9922 63.1649 90.5391 63.5801 90.079 64.1493Z" fill="white" stroke="black"/>
<path d="M83.9042 66.4783C83.8542 66.5428 83.8096 66.6036 83.77 66.6598L83.5545 66.5624L83.9042 66.4783ZM86.4635 64.4882C86.0719 64.6744 85.7267 64.8751 85.4237 65.0796L86.268 63.871L86.4455 63.6169C86.4487 63.9574 86.4562 64.2568 86.463 64.4725C86.4632 64.4778 86.4633 64.483 86.4635 64.4882ZM86.4823 61.8653C86.4549 62.302 86.4451 62.7709 86.444 63.2009L85.9649 63.0962L83.4503 62.5467L83.7527 62.209L83.7605 62.2002L83.768 62.1911L83.3802 61.8755C83.768 62.1911 83.7681 62.1909 83.7683 62.1908L83.7686 62.1904L83.7692 62.1896L83.7706 62.1878L83.774 62.1836L83.7824 62.1727C83.7889 62.1643 83.7968 62.1536 83.806 62.1407C83.8243 62.115 83.8476 62.0802 83.8733 62.0371C83.9243 61.9517 83.9869 61.83 84.037 61.6788C84.083 61.54 84.1189 61.3747 84.1252 61.1907C84.5623 61.4652 85.0595 61.6227 85.475 61.7162C85.8523 61.8011 86.2084 61.8438 86.4823 61.8653Z" fill="white" stroke="black"/>
<path d="M84.2548 65.8797L85.8581 63.5846L82.5056 62.8521L80.9508 63.3892L80.4164 66.8564L82.0198 66.4169L84.2548 65.8797Z" fill="white"/>
<path d="M80.0227 61.1998L83.1743 61.1597C83.1715 61.2354 83.1564 61.3039 83.1364 61.3639C83.129 61.3864 83.1209 61.4074 83.1127 61.4268L80.518 61.9236C80.391 61.8063 80.2674 61.686 80.1638 61.5781C80.0872 61.4982 80.0268 61.4305 79.9857 61.3793C79.9772 61.3687 79.9704 61.3598 79.965 61.3527C79.9724 61.3202 79.9881 61.2743 80.014 61.2183C80.0169 61.2121 80.0198 61.2059 80.0227 61.1998ZM79.9605 61.382C79.9604 61.382 79.9604 61.3811 79.9606 61.379C79.9606 61.3809 79.9605 61.382 79.9605 61.382Z" fill="white" stroke="black"/>
<path d="M117.197 112.809C114.719 121.55 112.338 128.729 112.338 128.729C112.338 128.729 105.584 154.61 105.39 177.611C105.39 177.611 118.12 197.047 116.079 228.202C116.079 228.202 121.57 234.258 130.655 231.426C130.655 231.426 131.773 188.598 123.95 177.709C123.95 177.709 125.797 165.11 130.558 160.861C130.558 160.861 131.919 176.195 136.826 183.862C136.826 183.862 144.648 213.015 137.846 232.402C137.846 232.402 137.846 232.842 137.749 233.525C141.247 236.162 149.507 236.407 149.507 236.407C149.507 236.407 164.423 201.051 150.673 174.29C150.673 174.29 149.313 149.58 156.455 133.417L153.929 133.71C151.596 135.809 149.459 136.737 149.459 136.737L143.58 127.166C143.58 127.166 143.531 127.166 139.838 127.703C136.146 128.24 136.923 126.043 136.923 126.043C138.818 125.847 144.017 122.917 144.017 122.917L145.329 122.722C144.551 120.573 143.482 117.546 142.365 113.883C137.506 114.225 127.109 114.811 123.513 114.567C121.035 114.372 118.752 113.541 117.197 112.809Z" fill="#36336B"/>
<path d="M146.252 236.065C148.098 236.309 149.459 236.309 149.459 236.309C149.459 236.309 164.375 200.953 150.625 174.193C150.625 174.193 149.264 149.483 156.407 133.319L153.88 133.612C152.034 135.272 150.333 136.2 149.702 136.542C147.224 144.453 143.968 158.712 146.155 173.997C146.155 173.997 155.872 212.234 146.155 235.332C146.155 235.381 146.203 235.625 146.252 236.065Z" fill="#27254D"/>
<path d="M125.991 232.109C127.4 232.109 128.955 231.865 130.655 231.328C130.655 231.328 131.773 188.501 123.95 177.611C123.95 177.611 125.797 165.012 130.558 160.763C130.558 160.763 129.392 141.474 129.586 135.321C129.586 135.321 117.343 155.44 119.432 175.853C119.383 175.902 126.331 209.157 125.991 232.109Z" fill="#27254D"/>
<path d="M149.459 236.309C149.459 236.309 141.199 236.065 137.7 233.428C137.409 235.186 136.194 238.555 131.821 240.313C130.85 242.462 127.692 244.757 127.692 244.757C127.692 244.757 122.25 246.173 121.91 248.224C121.618 250.324 121.57 250.568 121.57 250.568C121.57 250.568 139.693 254.28 145.426 248.42L145.62 248.957C145.62 248.957 149.847 249.152 150.916 247.492C150.916 247.492 152.277 239.971 149.459 236.309Z" fill="#36336B"/>
<path d="M149.459 236.309C149.459 236.309 148.098 236.26 146.252 236.065C145.086 235.918 143.774 235.723 142.462 235.381C140.664 234.942 138.915 234.307 137.749 233.428C137.652 233.965 137.458 234.649 137.166 235.381C137.069 235.576 136.972 235.821 136.875 236.016C136.972 236.114 137.069 236.162 137.166 236.26C138.915 237.579 141.83 238.946 146.738 239.337C147.029 241.974 147.321 245.587 147.078 248.957C148.39 248.859 150.285 248.566 150.916 247.541C150.916 247.492 152.277 239.971 149.459 236.309Z" fill="#27254D"/>
<path d="M131.822 240.313C131.967 238.848 130.655 231.377 130.655 231.377C121.57 234.209 116.079 228.154 116.079 228.154C116.079 228.154 113.213 238.555 104.807 239.385C96.4016 240.215 95.4784 239.727 94.7496 242.608C94.7496 242.608 107.479 248.42 118.46 243.438C118.46 243.438 122.056 243.292 122.25 244.757L127.692 244.708C127.643 244.757 130.85 242.462 131.822 240.313Z" fill="#36336B"/>
<mask id="path-55-inside-1_40_1056" fill="white">
<path fill-rule="evenodd" clip-rule="evenodd" d="M129.074 17.0464C129.066 17.0464 129.059 17.0464 129.052 17.0464L129.009 15.8745L129.003 15.7767C129.003 15.7767 129.004 15.7767 129.005 15.7765L129.003 15.7279C129.003 15.7279 134.98 14.8977 138.964 13.8234C140.373 13.4327 141.49 13.042 142.073 12.6514C142.073 12.6514 143.239 12.6514 144.454 12.9444C145.62 13.1885 146.786 13.7257 146.981 14.7512C146.981 14.7512 146.972 14.7621 146.956 14.7837C146.965 14.821 146.974 14.859 146.981 14.8977C146.981 14.8977 146.016 16.0829 145.993 18.1156C146.008 19.4118 146.408 21.0362 147.661 22.9064C147.58 22.8336 147.502 22.761 147.426 22.6886C147.5 22.809 147.579 22.9304 147.661 23.0529C147.661 23.0529 148.195 20.8066 150.139 20.6601C151.471 20.928 151.464 22.3794 151.453 24.5294V24.5297V24.5301C151.452 24.7317 151.451 24.9394 151.451 25.1528C151.451 27.6433 148.633 29.3036 148.633 29.3036L148.633 32.8477C147.612 35.0453 136.097 43.64 136.097 43.64C135.466 42.9563 134.251 41.2471 133.328 39.9286L133.623 37.4443C133.284 37.1717 132.419 36.4454 131.919 35.7497C131.287 34.8707 129.829 29.0595 129.829 29.0595L129.344 21.9298L129.074 17.0464ZM129.295 21.8808L129.781 29.0105C128.858 28.864 127.935 23.297 127.935 22.711C127.935 22.0762 129.295 21.8808 129.295 21.8808Z"/>
</mask>
<path fill-rule="evenodd" clip-rule="evenodd" d="M129.074 17.0464C129.066 17.0464 129.059 17.0464 129.052 17.0464L129.009 15.8745L129.003 15.7767C129.003 15.7767 129.004 15.7767 129.005 15.7765L129.003 15.7279C129.003 15.7279 134.98 14.8977 138.964 13.8234C140.373 13.4327 141.49 13.042 142.073 12.6514C142.073 12.6514 143.239 12.6514 144.454 12.9444C145.62 13.1885 146.786 13.7257 146.981 14.7512C146.981 14.7512 146.972 14.7621 146.956 14.7837C146.965 14.821 146.974 14.859 146.981 14.8977C146.981 14.8977 146.016 16.0829 145.993 18.1156C146.008 19.4118 146.408 21.0362 147.661 22.9064C147.58 22.8336 147.502 22.761 147.426 22.6886C147.5 22.809 147.579 22.9304 147.661 23.0529C147.661 23.0529 148.195 20.8066 150.139 20.6601C151.471 20.928 151.464 22.3794 151.453 24.5294V24.5297V24.5301C151.452 24.7317 151.451 24.9394 151.451 25.1528C151.451 27.6433 148.633 29.3036 148.633 29.3036L148.633 32.8477C147.612 35.0453 136.097 43.64 136.097 43.64C135.466 42.9563 134.251 41.2471 133.328 39.9286L133.623 37.4443C133.284 37.1717 132.419 36.4454 131.919 35.7497C131.287 34.8707 129.829 29.0595 129.829 29.0595L129.344 21.9298L129.074 17.0464ZM129.295 21.8808L129.781 29.0105C128.858 28.864 127.935 23.297 127.935 22.711C127.935 22.0762 129.295 21.8808 129.295 21.8808Z" fill="white"/>
<path d="M129.052 17.0464L128.053 17.0832L128.088 18.0464H129.052V17.0464ZM129.074 17.0464L130.072 16.9912L130.02 16.0459L129.073 16.0464L129.074 17.0464ZM129.009 15.8745L130.008 15.8376L130.008 15.8285L130.007 15.8193L129.009 15.8745ZM129.003 15.7767L128.866 14.7863L127.954 14.9131L128.005 15.8319L129.003 15.7767ZM129.005 15.7765L129.143 16.7669L130.038 16.6422L130.005 15.7397L129.005 15.7765ZM129.003 15.7279L128.866 14.7374L127.971 14.8617L128.004 15.7647L129.003 15.7279ZM138.964 13.8234L139.224 14.7889L139.231 14.787L138.964 13.8234ZM142.073 12.6514V11.6514H141.769L141.517 11.8206L142.073 12.6514ZM144.454 12.9444L144.22 13.9165L144.234 13.92L144.249 13.9231L144.454 12.9444ZM146.981 14.7512L147.756 15.3826L148.05 15.0219L147.963 14.565L146.981 14.7512ZM146.956 14.7837L146.155 14.1852L145.868 14.5693L145.987 15.0335L146.956 14.7837ZM146.981 14.8977L147.756 15.5291L148.047 15.1723L147.965 14.7197L146.981 14.8977ZM145.993 18.1156L144.993 18.1044L144.993 18.1156L144.993 18.1268L145.993 18.1156ZM147.661 22.9064L146.992 23.6496L148.492 22.3499L147.661 22.9064ZM147.426 22.6886L148.115 21.9643L146.576 23.2168L147.426 22.6886ZM147.661 23.0529L146.83 23.6095L148.104 25.5111L148.634 23.2844L147.661 23.0529ZM150.139 20.6601L150.336 19.6797L150.201 19.6526L150.064 19.6629L150.139 20.6601ZM151.453 24.5294L150.453 24.5242V24.5294H151.453ZM151.453 24.5301L152.453 24.5353V24.5301H151.453ZM148.633 29.3036L148.125 28.4421L147.633 28.7322L147.633 29.3036L148.633 29.3036ZM148.633 32.8477L149.54 33.2689L149.633 33.0686V32.8477L148.633 32.8477ZM136.097 43.64L135.363 44.3186L135.974 44.9799L136.695 44.4413L136.097 43.64ZM133.328 39.9286L132.335 39.8106L132.29 40.1896L132.509 40.5022L133.328 39.9286ZM133.623 37.4443L134.616 37.5623L134.681 37.0122L134.25 36.665L133.623 37.4443ZM131.919 35.7497L131.107 36.3332H131.107L131.919 35.7497ZM129.829 29.0595L128.832 29.1275L128.838 29.2163L128.86 29.3028L129.829 29.0595ZM129.344 21.9298L128.345 21.985L128.346 21.9978L129.344 21.9298ZM129.781 29.0105L129.624 29.9982L130.864 30.1949L130.779 28.9425L129.781 29.0105ZM129.295 21.8808L130.293 21.8128L130.219 20.7378L129.153 20.891L129.295 21.8808ZM129.052 18.0464C129.059 18.0464 129.067 18.0464 129.074 18.0464L129.073 16.0464C129.066 16.0464 129.059 16.0464 129.052 16.0464V18.0464ZM128.01 15.9113L128.053 17.0832L130.051 17.0096L130.008 15.8376L128.01 15.9113ZM128.005 15.8319L128.01 15.9297L130.007 15.8193L130.002 15.7216L128.005 15.8319ZM128.867 14.7861C128.867 14.7862 128.866 14.7862 128.866 14.7862C128.866 14.7863 128.866 14.7863 128.866 14.7863C128.866 14.7863 128.866 14.7863 128.866 14.7863C128.866 14.7863 128.866 14.7863 128.866 14.7863C128.866 14.7863 128.866 14.7863 128.866 14.7863C128.866 14.7863 128.866 14.7863 128.866 14.7863C128.866 14.7863 128.866 14.7863 128.866 14.7863C128.866 14.7863 128.866 14.7863 128.866 14.7863C128.866 14.7863 128.866 14.7863 128.866 14.7863C128.866 14.7863 128.866 14.7863 129.003 15.7767C129.141 16.7672 129.141 16.7672 129.141 16.7672C129.141 16.7672 129.141 16.7672 129.141 16.7672C129.141 16.7672 129.141 16.7672 129.141 16.7672C129.141 16.7672 129.141 16.7672 129.141 16.7672C129.141 16.7672 129.141 16.7672 129.141 16.7672C129.141 16.7672 129.141 16.7672 129.141 16.7672C129.141 16.7672 129.141 16.7672 129.141 16.7672C129.141 16.7672 129.141 16.7672 129.141 16.7672C129.142 16.7672 129.142 16.7671 129.142 16.7671C129.142 16.7671 129.143 16.767 129.143 16.7669L128.867 14.7861ZM128.004 15.7647L128.006 15.8133L130.005 15.7397L130.003 15.6911L128.004 15.7647ZM138.703 12.8579C136.758 13.3825 134.305 13.8524 132.32 14.1929C131.332 14.3625 130.467 14.4989 129.849 14.5927C129.541 14.6397 129.294 14.6759 129.125 14.7004C129.04 14.7127 128.975 14.722 128.931 14.7282C128.909 14.7313 128.893 14.7336 128.882 14.7352C128.876 14.7359 128.872 14.7365 128.87 14.7369C128.868 14.7371 128.867 14.7372 128.867 14.7373C128.866 14.7373 128.866 14.7374 128.866 14.7374C128.866 14.7374 128.866 14.7374 128.866 14.7374C128.866 14.7374 128.866 14.7374 129.003 15.7279C129.141 16.7184 129.141 16.7184 129.141 16.7183C129.141 16.7183 129.141 16.7183 129.142 16.7183C129.142 16.7183 129.142 16.7182 129.142 16.7182C129.143 16.7181 129.145 16.7179 129.146 16.7177C129.149 16.7172 129.154 16.7166 129.16 16.7158C129.172 16.7141 129.189 16.7116 129.212 16.7084C129.258 16.7019 129.325 16.6923 129.411 16.6798C129.585 16.6547 129.836 16.6177 130.15 16.57C130.777 16.4747 131.655 16.3363 132.659 16.1641C134.658 15.821 137.186 15.3386 139.224 14.7889L138.703 12.8579ZM141.517 11.8206C141.088 12.1081 140.125 12.4636 138.697 12.8597L139.231 14.787C140.62 14.4018 141.893 13.976 142.63 13.4821L141.517 11.8206ZM144.689 11.9722C144.015 11.8098 143.366 11.7306 142.891 11.6914C142.651 11.6716 142.452 11.6616 142.31 11.6566C142.239 11.6541 142.183 11.6527 142.143 11.6521C142.122 11.6517 142.106 11.6516 142.095 11.6515C142.089 11.6514 142.084 11.6514 142.081 11.6514C142.079 11.6514 142.077 11.6514 142.076 11.6514C142.076 11.6514 142.075 11.6514 142.075 11.6514C142.074 11.6514 142.074 11.6514 142.074 11.6514C142.074 11.6514 142.074 11.6514 142.074 11.6514C142.074 11.6514 142.073 11.6514 142.073 12.6514C142.073 13.6514 142.073 13.6514 142.073 13.6514C142.073 13.6514 142.073 13.6514 142.073 13.6514C142.073 13.6514 142.073 13.6514 142.073 13.6514C142.072 13.6514 142.072 13.6514 142.072 13.6514C142.072 13.6514 142.072 13.6514 142.073 13.6514C142.074 13.6514 142.076 13.6514 142.079 13.6514C142.085 13.6515 142.095 13.6516 142.109 13.6518C142.138 13.6523 142.181 13.6533 142.239 13.6553C142.354 13.6594 142.522 13.6677 142.726 13.6846C143.138 13.7186 143.678 13.7859 144.22 13.9165L144.689 11.9722ZM147.963 14.565C147.798 13.6929 147.225 13.0959 146.618 12.7105C146.017 12.3293 145.306 12.1011 144.659 11.9656L144.249 13.9231C144.768 14.0318 145.223 14.1942 145.546 14.3991C145.862 14.5997 145.969 14.784 145.998 14.9374L147.963 14.565ZM147.757 15.3821C147.761 15.3772 147.762 15.3747 147.762 15.3748C147.762 15.3748 147.762 15.3755 147.761 15.3768C147.76 15.3774 147.76 15.3782 147.759 15.3792C147.759 15.3797 147.758 15.3802 147.758 15.3808C147.757 15.3811 147.757 15.3813 147.757 15.3816C147.757 15.3818 147.757 15.3819 147.757 15.3821C147.756 15.3822 147.756 15.3823 147.756 15.3823C147.756 15.3824 147.756 15.3824 147.756 15.3825C147.756 15.3825 147.756 15.3825 147.756 15.3825C147.756 15.3825 147.756 15.3826 146.981 14.7512C146.205 14.1198 146.205 14.1199 146.205 14.1199C146.205 14.1199 146.205 14.1199 146.205 14.12C146.205 14.12 146.205 14.12 146.205 14.1201C146.205 14.1202 146.205 14.1202 146.205 14.1203C146.205 14.1205 146.205 14.1207 146.204 14.1208C146.204 14.1212 146.204 14.1215 146.204 14.1219C146.203 14.1226 146.202 14.1234 146.202 14.1242C146.2 14.1259 146.199 14.1277 146.197 14.1297C146.194 14.1337 146.19 14.1385 146.186 14.1439C146.178 14.1548 146.167 14.1686 146.155 14.1852L147.757 15.3821ZM147.965 14.7197C147.953 14.6568 147.94 14.5949 147.924 14.5338L145.987 15.0335C145.991 15.0472 145.994 15.0612 145.997 15.0758L147.965 14.7197ZM146.993 18.1268C147.003 17.269 147.211 16.5985 147.41 16.1497C147.509 15.9251 147.606 15.7571 147.674 15.6511C147.707 15.5982 147.733 15.561 147.748 15.5404C147.756 15.53 147.76 15.5239 147.762 15.522C147.763 15.521 147.763 15.5211 147.762 15.5223C147.761 15.5229 147.761 15.5237 147.76 15.5249C147.759 15.5254 147.759 15.5261 147.758 15.5268C147.758 15.5271 147.757 15.5275 147.757 15.5279C147.757 15.528 147.757 15.5283 147.757 15.5284C147.756 15.5287 147.756 15.5291 146.981 14.8977C146.205 14.2664 146.205 14.2667 146.205 14.2671C146.205 14.2672 146.204 14.2675 146.204 14.2677C146.204 14.2682 146.203 14.2687 146.203 14.2692C146.202 14.2702 146.201 14.2712 146.2 14.2724C146.199 14.2746 146.196 14.2772 146.194 14.2801C146.19 14.2859 146.184 14.2929 146.178 14.3011C146.165 14.3176 146.149 14.3389 146.13 14.3649C146.092 14.417 146.043 14.4883 145.986 14.5783C145.871 14.758 145.726 15.0133 145.581 15.3391C145.292 15.9911 145.006 16.9295 144.993 18.1044L146.993 18.1268ZM148.492 22.3499C147.338 20.628 147.005 19.191 146.993 18.1045L144.993 18.1268C145.01 19.6326 145.478 21.4445 146.83 23.463L148.492 22.3499ZM146.736 23.4129C146.819 23.4918 146.904 23.5707 146.992 23.6496L148.33 22.1633C148.256 22.0965 148.184 22.0302 148.115 21.9643L146.736 23.4129ZM148.492 22.4964C148.416 22.3831 148.344 22.2711 148.275 22.1604L146.576 23.2168C146.657 23.3469 146.742 23.4778 146.83 23.6095L148.492 22.4964ZM150.064 19.6629C148.665 19.7684 147.804 20.6411 147.332 21.3669C147.095 21.7322 146.938 22.086 146.839 22.3461C146.79 22.4775 146.754 22.5886 146.729 22.6702C146.717 22.7112 146.708 22.7449 146.701 22.7704C146.698 22.7832 146.695 22.7939 146.693 22.8025C146.692 22.8068 146.691 22.8105 146.69 22.8137C146.69 22.8152 146.689 22.8167 146.689 22.818C146.689 22.8186 146.689 22.8193 146.688 22.8198C146.688 22.8201 146.688 22.8205 146.688 22.8207C146.688 22.8211 146.688 22.8215 147.661 23.0529C148.634 23.2844 148.634 23.2848 148.634 23.2851C148.634 23.2853 148.633 23.2856 148.633 23.2858C148.633 23.2863 148.633 23.2867 148.633 23.2871C148.633 23.2878 148.633 23.2885 148.633 23.289C148.632 23.29 148.632 23.2905 148.632 23.2905C148.632 23.2905 148.633 23.2886 148.634 23.2849C148.636 23.2774 148.64 23.2628 148.646 23.242C148.658 23.2002 148.679 23.1347 148.71 23.0533C148.773 22.8876 148.87 22.6706 149.01 22.4561C149.292 22.022 149.669 21.6983 150.214 21.6573L150.064 19.6629ZM152.453 24.5345C152.458 23.5106 152.471 22.4638 152.271 21.6505C152.166 21.2218 151.985 20.7774 151.651 20.4065C151.304 20.0206 150.854 19.7838 150.336 19.6797L149.942 21.6405C150.09 21.6703 150.139 21.7154 150.164 21.7441C150.204 21.7879 150.27 21.891 150.329 22.1274C150.455 22.6442 150.459 23.3981 150.453 24.5242L152.453 24.5345ZM152.453 24.5297V24.5294H150.453V24.5297H152.453ZM152.453 24.5301V24.5297H150.453V24.5301H152.453ZM152.451 25.1528C152.451 24.9423 152.452 24.7372 152.453 24.5353L150.453 24.525C150.452 24.7261 150.451 24.9364 150.451 25.1528H152.451ZM148.633 29.3036C149.14 30.1652 149.141 30.165 149.141 30.1649C149.141 30.1648 149.141 30.1646 149.141 30.1645C149.142 30.1642 149.142 30.1639 149.143 30.1636C149.144 30.163 149.145 30.1622 149.147 30.1613C149.15 30.1596 149.153 30.1575 149.157 30.155C149.166 30.1499 149.177 30.1432 149.19 30.1348C149.217 30.1181 149.254 30.0947 149.3 30.065C149.391 30.0056 149.517 29.9202 149.666 29.8105C149.962 29.5922 150.359 29.2709 150.759 28.8584C151.537 28.0564 152.451 26.7798 152.451 25.1528H150.451C150.451 26.0163 149.955 26.8151 149.324 27.4659C149.019 27.7798 148.712 28.0293 148.48 28.2001C148.365 28.2849 148.27 28.3487 148.207 28.3899C148.176 28.4104 148.152 28.4252 148.138 28.434C148.131 28.4383 148.126 28.4412 148.124 28.4426C148.123 28.4433 148.122 28.4436 148.123 28.4435C148.123 28.4434 148.123 28.4433 148.123 28.4431C148.123 28.4429 148.124 28.4428 148.124 28.4426C148.124 28.4425 148.124 28.4424 148.124 28.4424C148.125 28.4422 148.125 28.4421 148.633 29.3036ZM149.633 32.8477L149.633 29.3036L147.633 29.3036L147.633 32.8477L149.633 32.8477ZM136.097 43.64C136.695 44.4413 136.695 44.4413 136.696 44.4412C136.696 44.4411 136.696 44.441 136.696 44.4409C136.696 44.4406 136.697 44.4401 136.698 44.4396C136.699 44.4385 136.701 44.4369 136.704 44.4347C136.71 44.4305 136.718 44.4241 136.729 44.4159C136.752 44.3993 136.784 44.3747 136.827 44.3427C136.912 44.2786 137.037 44.1846 137.197 44.0644C137.515 43.8238 137.971 43.478 138.521 43.0562C139.62 42.2131 141.098 41.0649 142.61 39.8465C144.119 38.63 145.672 37.335 146.917 36.2002C147.539 35.6334 148.095 35.0963 148.535 34.622C148.95 34.1731 149.34 33.6989 149.54 33.2689L147.726 32.4266C147.67 32.5459 147.477 32.8211 147.067 33.2628C146.682 33.6791 146.171 34.174 145.57 34.722C144.369 35.8168 142.852 37.0825 141.355 38.2894C139.86 39.4943 138.395 40.6321 137.304 41.4692C136.758 41.8875 136.306 42.2303 135.991 42.4684C135.834 42.5874 135.71 42.6802 135.626 42.7431C135.585 42.7746 135.553 42.7986 135.531 42.8146C135.52 42.8227 135.512 42.8287 135.507 42.8327C135.504 42.8347 135.502 42.8362 135.501 42.8372C135.5 42.8377 135.5 42.838 135.499 42.8383C135.499 42.8384 135.499 42.8385 135.499 42.8385C135.499 42.8386 135.499 42.8386 136.097 43.64ZM132.509 40.5022C133.412 41.7928 134.673 43.5725 135.363 44.3186L136.832 42.9614C136.258 42.3401 135.09 40.7014 134.147 39.3551L132.509 40.5022ZM132.63 37.3263L132.335 39.8106L134.321 40.0466L134.616 37.5623L132.63 37.3263ZM131.107 36.3332C131.695 37.1513 132.659 37.9522 132.996 38.2236L134.25 36.665C133.909 36.3911 133.143 35.7394 132.731 35.1661L131.107 36.3332ZM129.829 29.0595C128.86 29.3028 128.86 29.3028 128.86 29.3029C128.86 29.3029 128.86 29.303 128.86 29.3031C128.86 29.3034 128.86 29.3037 128.86 29.3041C128.86 29.3049 128.86 29.306 128.861 29.3075C128.861 29.3105 128.863 29.3148 128.864 29.3205C128.867 29.3319 128.871 29.3486 128.877 29.3704C128.888 29.4139 128.904 29.4776 128.925 29.5587C128.966 29.721 129.026 29.9534 129.1 30.2349C129.247 30.7975 129.451 31.5581 129.675 32.3479C129.899 33.1354 130.145 33.9621 130.378 34.6531C130.495 34.998 130.611 35.32 130.723 35.5913C130.826 35.8408 130.955 36.1216 131.107 36.3332L132.731 35.1661C132.735 35.1723 132.72 35.1507 132.686 35.0829C132.654 35.0198 132.616 34.9355 132.572 34.8283C132.483 34.6136 132.382 34.3374 132.273 34.0138C132.055 33.368 131.819 32.5771 131.599 31.802C131.38 31.0291 131.18 30.282 131.034 29.7275C130.962 29.4504 130.903 29.222 130.862 29.063C130.842 28.9836 130.826 28.9215 130.815 28.8795C130.81 28.8585 130.806 28.8425 130.803 28.8318C130.802 28.8265 130.801 28.8225 130.8 28.8199C130.8 28.8186 130.8 28.8176 130.8 28.817C130.8 28.8167 130.799 28.8164 130.799 28.8163C130.799 28.8162 130.799 28.8162 130.799 28.8162C130.799 28.8162 130.799 28.8162 129.829 29.0595ZM128.346 21.9978L128.832 29.1275L130.827 28.9915L130.341 21.8618L128.346 21.9978ZM128.075 17.1016L128.345 21.985L130.342 21.8746L130.072 16.9912L128.075 17.1016ZM130.779 28.9425L130.293 21.8128L128.297 21.9488L128.783 29.0785L130.779 28.9425ZM126.935 22.711C126.935 22.9572 127.01 23.5038 127.107 24.0861C127.211 24.71 127.359 25.4868 127.538 26.2528C127.715 27.0108 127.929 27.7934 128.172 28.4119C128.292 28.7168 128.435 29.027 128.609 29.2833C128.746 29.4849 129.068 29.91 129.624 29.9982L129.938 28.0229C130.263 28.0744 130.354 28.2935 130.264 28.1603C130.211 28.0819 130.131 27.9285 130.034 27.6817C129.844 27.1969 129.655 26.5236 129.485 25.7983C129.318 25.081 129.178 24.3471 129.08 23.7577C129.031 23.4632 128.993 23.2093 128.968 23.0153C128.94 22.7985 128.935 22.7098 128.935 22.711H126.935ZM129.295 21.8808C129.153 20.891 129.153 20.891 129.152 20.891C129.152 20.891 129.152 20.8911 129.152 20.8911C129.152 20.8912 129.151 20.8912 129.151 20.8913C129.15 20.8914 129.149 20.8915 129.148 20.8916C129.146 20.8919 129.144 20.8922 129.142 20.8926C129.137 20.8934 129.13 20.8944 129.123 20.8956C129.107 20.898 129.087 20.9014 129.062 20.9057C129.013 20.9144 128.946 20.9273 128.866 20.9449C128.711 20.9794 128.491 21.0357 128.262 21.1221C128.044 21.2042 127.754 21.3365 127.502 21.5491C127.244 21.7671 126.935 22.1532 126.935 22.711H128.935C128.935 22.9514 128.795 23.075 128.792 23.0778C128.789 23.0807 128.8 23.0706 128.835 23.052C128.869 23.0341 128.913 23.0141 128.967 22.9936C129.078 22.9518 129.199 22.9196 129.299 22.8976C129.346 22.887 129.385 22.8796 129.411 22.8752C129.423 22.8729 129.432 22.8715 129.437 22.8707C129.439 22.8704 129.44 22.8702 129.441 22.8702C129.441 22.8702 129.44 22.8702 129.44 22.8703C129.439 22.8703 129.439 22.8704 129.439 22.8704C129.438 22.8705 129.438 22.8705 129.438 22.8705C129.438 22.8706 129.438 22.8706 129.438 22.8706C129.437 22.8706 129.437 22.8707 129.295 21.8808Z" fill="black" mask="url(#path-55-inside-1_40_1056)"/>
<path d="M144.406 48.0068C145.523 45.6139 146.641 43.5141 147.612 41.8049L144.406 45.6139L140.616 50.1066L138.964 48.3975L135.66 45.0279L132.259 47.4696L135.417 46.0046L138.964 49.2276L141.345 51.4251L143.92 49.0323C144.114 48.7393 144.26 48.3975 144.406 48.0068Z" fill="#0AC41E"/>
<path d="M119.189 117.302C120.549 117.692 122.153 118.132 123.999 118.474C127.935 119.206 132.988 119.646 138.964 119.108C140.519 118.962 142.122 118.767 143.823 118.522V118.474C143.385 117.106 142.851 115.544 142.365 113.883C141.393 113.932 140.227 114.03 138.964 114.079C138.721 114.079 138.429 114.127 138.138 114.127C132.939 114.42 126.234 114.762 123.513 114.567C122.736 114.518 122.007 114.42 121.327 114.225C119.723 113.883 118.314 113.297 117.197 112.809C116.857 113.981 116.517 115.153 116.225 116.227C117.002 116.569 118.023 116.911 119.189 117.302Z" fill="#27254D"/>
<path d="M130.607 231.377C128.955 231.914 127.4 232.109 125.942 232.158C119.675 232.207 116.031 228.202 116.031 228.202C116.031 228.202 115.788 229.179 115.156 230.546C117.1 232.353 120.355 234.258 125.894 235.039C125.797 237.676 125.554 240.167 125.165 242.413C125.019 243.243 124.874 244.073 124.679 244.806H127.643C127.643 244.806 129.101 243.78 130.315 242.413C130.898 241.778 131.481 241.046 131.773 240.362C131.87 239.727 131.627 237.774 131.336 235.918C131.336 235.772 131.287 235.625 131.287 235.43C130.995 233.281 130.607 231.377 130.607 231.377Z" fill="#27254D"/>
<path d="M118.169 113.249C123.805 106.656 120.889 81.6532 121.375 70.6657C121.424 69.2495 121.57 68.0775 121.764 67.1985C123.027 61.5338 129.295 52.0601 132.502 47.4209L132.307 47.5186L132.259 47.5674C130.898 49.0812 121.424 59.9711 120.646 69.3472C120.646 69.396 120.646 69.4448 120.646 69.5425C119.82 79.7487 120.646 100.308 117.974 110.123C117.731 111.051 117.488 111.93 117.245 112.809C117.488 112.956 117.828 113.102 118.169 113.249Z" fill="#0AC41E"/>
<path d="M95.0897 65.8799C94.0693 67.1984 92.7089 69.5424 92.0287 73.0584L93.5835 74.6699C93.9236 69.2006 96.0614 66.6612 96.0614 66.6612C95.7213 66.3682 95.4298 66.1241 95.0897 65.8799Z" fill="#EEEDFF"/>
<path d="M151.899 119.539C151.905 119.532 151.911 119.525 151.918 119.518L151.922 119.513C151.924 119.511 151.926 119.509 151.927 119.507C152.242 119.701 152.592 119.911 152.938 120.121L152.942 120.123L152.942 120.123L152.944 120.124C155.621 121.72 159.274 123.601 162.705 124.34C162.331 124.872 161.946 125.387 161.57 125.889C161.57 125.889 161.57 125.89 161.57 125.89C161.456 125.856 161.352 125.83 161.255 125.805C159.256 125.182 157.598 124.419 156.279 123.614C154.04 122.236 152.697 120.733 151.899 119.539Z" fill="#F3F2FF" stroke="black"/>
</g>
<defs>
<linearGradient id="paint0_linear_40_1056" x1="149.573" y1="261.957" x2="149.018" y2="237.386" gradientUnits="userSpaceOnUse">
<stop stop-color="white" stop-opacity="0"/>
<stop offset="1" stop-color="#82A9FF" stop-opacity="0.21"/>
</linearGradient>
<linearGradient id="paint1_linear_40_1056" x1="138.332" y1="10.8421" x2="138.332" y2="1.03317" gradientUnits="userSpaceOnUse">
<stop stop-color="#36336B"/>
<stop offset="1" stop-color="#4F4387"/>
</linearGradient>
<clipPath id="clip0_40_1056">
<rect width="96" height="54" fill="white" transform="translate(0.444702 25.7402)"/>
</clipPath>
<clipPath id="clip1_40_1056">
<rect width="121" height="129" fill="white" transform="translate(114.445 4.14941) rotate(-1.61455)"/>
</clipPath>
<clipPath id="clip2_40_1056">
<rect width="98" height="247" fill="white" transform="translate(79.4447 4.74023)"/>
</clipPath>
</defs>
</svg>
