<svg width="25" height="25" viewBox="0 0 25 25" fill="none" xmlns="http://www.w3.org/2000/svg">
<g clip-path="url(#clip0_40_1132)">
<path d="M14.6202 22.3428C14.4922 22.3428 14.3642 22.2938 14.2662 22.1968C14.0712 22.0018 14.0712 21.6848 14.2662 21.4898L22.9132 12.8428L14.2672 4.19676C14.0722 4.00176 14.0722 3.68476 14.2672 3.48976C14.4622 3.29476 14.7792 3.29476 14.9742 3.48976L23.9742 12.4898C24.1692 12.6848 24.1692 13.0018 23.9742 13.1968L14.9742 22.1968C14.8762 22.2938 14.7482 22.3428 14.6202 22.3428Z" fill="#2F70FE"/>
<path d="M23.6202 13.3428H0.620239C0.344239 13.3428 0.120239 13.1188 0.120239 12.8428C0.120239 12.5668 0.344239 12.3428 0.620239 12.3428H23.6202C23.8962 12.3428 24.1202 12.5668 24.1202 12.8428C24.1202 13.1188 23.8962 13.3428 23.6202 13.3428Z" fill="#2F70FE"/>
</g>
<defs>
<clipPath id="clip0_40_1132">
<rect width="24" height="24" fill="white" transform="translate(0.120239 0.842773)"/>
</clipPath>
</defs>
</svg>
