<svg width="25" height="24" viewBox="0 0 25 24" fill="none" xmlns="http://www.w3.org/2000/svg">
<g clip-path="url(#clip0_40_859)">
<path d="M14.9447 21.5C14.8167 21.5 14.6887 21.451 14.5907 21.354C14.3957 21.159 14.3957 20.842 14.5907 20.647L23.2377 12L14.5917 3.35398C14.3967 3.15898 14.3967 2.84198 14.5917 2.64698C14.7867 2.45198 15.1037 2.45198 15.2987 2.64698L24.2987 11.647C24.4937 11.842 24.4937 12.159 24.2987 12.354L15.2987 21.354C15.2007 21.451 15.0727 21.5 14.9447 21.5Z" fill="#2F70FE"/>
<path d="M23.9447 12.5H0.944702C0.668702 12.5 0.444702 12.276 0.444702 12C0.444702 11.724 0.668702 11.5 0.944702 11.5H23.9447C24.2207 11.5 24.4447 11.724 24.4447 12C24.4447 12.276 24.2207 12.5 23.9447 12.5Z" fill="#2F70FE"/>
</g>
<defs>
<clipPath id="clip0_40_859">
<rect width="24" height="24" fill="white" transform="translate(0.444702)"/>
</clipPath>
</defs>
</svg>
