<svg width="24" height="25" viewBox="0 0 24 25" fill="none" xmlns="http://www.w3.org/2000/svg">
<g clip-path="url(#clip0_40_784)">
<path d="M14.5 22.0002C14.372 22.0002 14.244 21.9512 14.146 21.8542C13.951 21.6592 13.951 21.3422 14.146 21.1472L22.793 12.5002L14.147 3.85423C13.952 3.65923 13.952 3.34223 14.147 3.14723C14.342 2.95223 14.659 2.95223 14.854 3.14723L23.854 12.1472C24.049 12.3422 24.049 12.6592 23.854 12.8542L14.854 21.8542C14.756 21.9512 14.628 22.0002 14.5 22.0002Z" fill="#2F70FE"/>
<path d="M23.5 13H0.5C0.224 13 0 12.776 0 12.5C0 12.224 0.224 12 0.5 12H23.5C23.776 12 24 12.224 24 12.5C24 12.776 23.776 13 23.5 13Z" fill="#2F70FE"/>
</g>
<defs>
<clipPath id="clip0_40_784">
<rect width="24" height="24" fill="white" transform="translate(0 0.5)"/>
</clipPath>
</defs>
</svg>
