<svg width="25" height="16" viewBox="0 0 25 16" fill="none" xmlns="http://www.w3.org/2000/svg">
<g clip-path="url(#clip0_40_656)">
<path d="M15 21.5002C14.872 21.5002 14.744 21.4512 14.646 21.3542C14.451 21.1592 14.451 20.8422 14.646 20.6472L23.293 12.0002L14.647 3.35423C14.452 3.15923 14.452 2.84223 14.647 2.64723C14.842 2.45223 15.159 2.45223 15.354 2.64723L24.354 11.6472C24.549 11.8422 24.549 12.1592 24.354 12.3542L15.354 21.3542C15.256 21.4512 15.128 21.5002 15 21.5002Z" fill="#2F70FE"/>
<path d="M24 12.5H1C0.724 12.5 0.5 12.276 0.5 12C0.5 11.724 0.724 11.5 1 11.5H24C24.276 11.5 24.5 11.724 24.5 12C24.5 12.276 24.276 12.5 24 12.5Z" fill="#2F70FE"/>
</g>
<defs>
<clipPath id="clip0_40_656">
<rect width="24" height="24" fill="white" transform="translate(0.5)"/>
</clipPath>
</defs>
</svg>
