<svg width="25" height="24" viewBox="0 0 25 24" fill="none" xmlns="http://www.w3.org/2000/svg">
<g clip-path="url(#clip0_40_1052)">
<path d="M15 21.5C14.872 21.5 14.744 21.451 14.646 21.354C14.451 21.159 14.451 20.842 14.646 20.647L23.293 12L14.647 3.35398C14.452 3.15898 14.452 2.84198 14.647 2.64698C14.842 2.45198 15.159 2.45198 15.354 2.64698L24.354 11.647C24.549 11.842 24.549 12.159 24.354 12.354L15.354 21.354C15.256 21.451 15.128 21.5 15 21.5Z" fill="#2F70FE"/>
<path d="M24 12.5H1C0.724 12.5 0.5 12.276 0.5 12C0.5 11.724 0.724 11.5 1 11.5H24C24.276 11.5 24.5 11.724 24.5 12C24.5 12.276 24.276 12.5 24 12.5Z" fill="#2F70FE"/>
</g>
<defs>
<clipPath id="clip0_40_1052">
<rect width="24" height="24" fill="white" transform="translate(0.5)"/>
</clipPath>
</defs>
</svg>
