<svg width="35" height="25" viewBox="0 0 35 25" fill="none" xmlns="http://www.w3.org/2000/svg">
<path d="M1.7724 0.000178582C1.54083 -0.00316788 1.31093 0.0405481 1.09604 0.128786C0.88115 0.217023 0.685566 0.348023 0.520654 0.514171C0.355742 0.68032 0.22479 0.878303 0.135409 1.09662C0.046028 1.31493 0 1.54922 0 1.78587C0 2.02252 0.046028 2.2568 0.135409 2.47512C0.22479 2.69343 0.355742 2.89142 0.520654 3.05756C0.685566 3.22371 0.88115 3.35471 1.09604 3.44295C1.31093 3.53119 1.54083 3.5749 1.7724 3.57156H33.2276C33.4592 3.5749 33.6891 3.53119 33.904 3.44295C34.1189 3.35471 34.3144 3.22371 34.4793 3.05756C34.6443 2.89142 34.7752 2.69343 34.8646 2.47512C34.954 2.2568 35 2.02252 35 1.78587C35 1.54922 34.954 1.31493 34.8646 1.09662C34.7752 0.878303 34.6443 0.68032 34.4793 0.514171C34.3144 0.348023 34.1189 0.217023 33.904 0.128786C33.6891 0.0405481 33.4592 -0.00316788 33.2276 0.000178582H1.7724ZM1.7724 10.7143C1.54083 10.711 1.31093 10.7547 1.09604 10.8429C0.88115 10.9312 0.685566 11.0622 0.520654 11.2283C0.355742 11.3945 0.22479 11.5924 0.135409 11.8107C0.046028 12.0291 0 12.2634 0 12.5C0 12.7366 0.046028 12.9709 0.135409 13.1893C0.22479 13.4076 0.355742 13.6055 0.520654 13.7717C0.685566 13.9378 0.88115 14.0688 1.09604 14.1571C1.31093 14.2453 1.54083 14.289 1.7724 14.2857H33.2276C33.4592 14.289 33.6891 14.2453 33.904 14.1571C34.1189 14.0688 34.3144 13.9378 34.4793 13.7717C34.6443 13.6055 34.7752 13.4076 34.8646 13.1893C34.954 12.9709 35 12.7366 35 12.5C35 12.2634 34.954 12.0291 34.8646 11.8107C34.7752 11.5924 34.6443 11.3945 34.4793 11.2283C34.3144 11.0622 34.1189 10.9312 33.904 10.8429C33.6891 10.7547 33.4592 10.711 33.2276 10.7143H1.7724ZM1.7724 21.4284C1.54083 21.4251 1.31093 21.4688 1.09604 21.5571C0.88115 21.6453 0.685566 21.7763 0.520654 21.9424C0.355742 22.1086 0.22479 22.3066 0.135409 22.5249C0.046028 22.7432 0 22.9775 0 23.2141C0 23.4508 0.046028 23.6851 0.135409 23.9034C0.22479 24.1217 0.355742 24.3197 0.520654 24.4858C0.685566 24.652 0.88115 24.783 1.09604 24.8712C1.31093 24.9595 1.54083 25.0032 1.7724 24.9998H33.2276C33.4592 25.0032 33.6891 24.9595 33.904 24.8712C34.1189 24.783 34.3144 24.652 34.4793 24.4858C34.6443 24.3197 34.7752 24.1217 34.8646 23.9034C34.954 23.6851 35 23.4508 35 23.2141C35 22.9775 34.954 22.7432 34.8646 22.5249C34.7752 22.3066 34.6443 22.1086 34.4793 21.9424C34.3144 21.7763 34.1189 21.6453 33.904 21.5571C33.6891 21.4688 33.4592 21.4251 33.2276 21.4284H1.7724Z" fill="#000C2D"/>
</svg>
